<ttFont>
<head>
    <!-- Most of this table will be recalculated by the compiler -->
    <tableVersion value="1.0"/>
    <fontRevision value="1.0"/>
    <checkSumAdjustment value="0x3f3cf975"/>
    <magicNumber value="0x5f0f3cf5"/>
    <flags value="00000000 00000011"/>
    <unitsPerEm value="2048"/>
    <created value="Thu Aug 15 19:06:09 2019"/>
    <modified value="Fri Aug 16 02:18:57 2019"/>
    <xMin value="-432"/>
    <yMin value="-532"/>
    <xMax value="3100"/>
    <yMax value="1950"/>
<macStyle value="00000000 00000000"/>
    <lowestRecPPEM value="3"/>
    <fontDirectionHint value="2"/>
    <indexToLocFormat value="0"/>
    <glyphDataFormat value="0"/>
  </head>
          <CharString index="0">
            -1122 24 callsubr
            return
          </CharString>
          <CharString index="1">
            rmoveto
            29 callsubr
            return
          </CharString>
          <CharString index="2">
            55 -18 7 -11 -53 vvcurveto
            return
          </CharString>
          <CharString index="3">
            -676 32 callsubr
            return
          </CharString>
          <CharString index="4">
            461 -354 281 -366 -434 -283 -332 -411 vhcurveto
            return
          </CharString>
          <CharString index="5">
            rmoveto
            144 118 64 84 45 hvcurveto
            -93 18 71 -50 98 hhcurveto
            return
          </CharString>
          <CharString index="6">
            rmoveto
            53 callsubr
            return
          </CharString>
          <CharString index="7">
            242 15 rmoveto
            385 134 293 return
          </CharString>
          <CharString index="8">
            302 -218 197 -274 -279 -220 -206 -297 -303 218 -197 274 return
          </CharString>
          <CharString index="9">
            333 84 callsubr
            endchar
          </CharString>
          <CharString index="10">
            rmoveto
            -445 1212 -88 0 -429 -1164 -73 -199 -32 -37 -106 -16 rlinecurve
            -34 379 34 vlineto
            -145 20 -15 45 63 182 rrcurveto
            81 236 483 0 98 -278 51 -144 -23 -45 -130 -16 rlinecurve
            -34 return
          </CharString>
          <CharString index="11">
            rmoveto
            -53 -42 -41 -51 -51 42 -42 53 53 42 42 51 51 -42 41 -53 hvcurveto
            endchar
          </CharString>
          <CharString index="12">
            432 34 vlineto
            -102 15 -12 16 65 vvcurveto
            return
          </CharString>
          <CharString index="13">
            47 callsubr
            endchar
          </CharString>
          <CharString index="14">
            rmoveto
            -49 callgsubr
          </CharString>
          <CharString index="15">
            1537 92 callsubr
            return
          </CharString>
          <CharString index="16">
            35 callsubr
            endchar
          </CharString>
          <CharString index="17">
            rmoveto
            278 221 207 297 return
          </CharString>
          <CharString index="18">
            -500 23 callsubr
            return
          </CharString>
          <CharString index="19">
            hvcurveto
            -84 callgsubr
          </CharString>
          <CharString index="20">
            316 37 0 30 -58 17 rlineto
            return
          </CharString>
          <CharString index="21">
            1088 rmoveto
            -31 callgsubr
            return
          </CharString>
          <CharString index="22">
            rmoveto
            -25 callsubr
            1063 vlineto
            -30 callsubr
            endchar
          </CharString>
          <CharString index="23">
            644 -103 callgsubr
            -512 vlineto
            52 callsubr
            547 vlineto
            204 -136 98 -193 return
          </CharString>
          <CharString index="24">
            rmoveto
            -301 201 -201 275 return
          </CharString>
          <CharString index="25">
            1579 51 callsubr
            return
          </CharString>
          <CharString index="26">
            -71 callsubr
            endchar
          </CharString>
          <CharString index="27">
            43 callsubr
            endchar
          </CharString>
          <CharString index="28">
            46 callsubr
            endchar
          </CharString>
          <CharString index="29">
            54 -100 callgsubr
            190 146 115 73 105 55 vhcurveto
            -169 vlineto
            return
          </CharString>
          <CharString index="30">
            rmoveto
            -95 callgsubr
            179 callsubr
            endchar
          </CharString>
          <CharString index="31">
            rmoveto
            1122 vlineto
            62 callsubr
            return
          </CharString>
          <CharString index="32">
            rmoveto
            486 108 -486 hlineto
            endchar
          </CharString>
          <CharString index="33">
            6 callsubr
            endchar
          </CharString>
          <CharString index="34">
            rmoveto
            124 86 65 98 99 -78 62 -108 -77 -52 -37 -37 -27 hvcurveto
            -32 vlineto
            8 17 31 8 32 hhcurveto
            62 47 -30 -50 -51 -46 -30 -64 -55 -48 19 26 -32 hvcurveto
            -34 vlineto
            -47 30 74 -37 84 hhcurveto
            endchar
          </CharString>
          <CharString index="35">
            1088 rmoveto
            225 195 222 -195 44 0 -222 352 -90 0 -222 -352 rlineto
            return
          </CharString>
          <CharString index="36">
            439 34 vlineto
            -104 16 -17 17 69 vvcurveto
            return
          </CharString>
          <CharString index="37">
            1823 87 callsubr
            return
          </CharString>
          <CharString index="38">
            1537 129 callsubr
            return
          </CharString>
          <CharString index="39">
            rmoveto
            -316 -36 0 -30 59 -18 rlineto
            -105 callsubr
            return
          </CharString>
          <CharString index="40">
            1160 rmoveto
            -45 callgsubr
            return
          </CharString>
          <CharString index="41">
            450 34 vlineto
            -118 16 -14 17 77 vvcurveto
            return
          </CharString>
          <CharString index="42">
            -34 hlineto
            123 -18 19 -21 -88 vvcurveto
            return
          </CharString>
          <CharString index="43">
            rmoveto
            83 57 49 99 hvcurveto
            -37 hlineto
            -47 -2 -29 -18 -44 hhcurveto
            -27 -27 7 12 -40 hvcurveto
            -29 10 rlineto
            12 -41 -39 9 -45 hhcurveto
            -82 -58 -49 -99 1 hvcurveto
            37 hlineto
            47 1 29 18 45 hhcurveto
            27 27 -6 -13 40 hvcurveto
            29 -9 rlineto
            -13 40 39 -9 45 hhcurveto
            return
          </CharString>
          <CharString index="44">
            rmoveto
            209 176 206 -176 41 0 -206 317 -84 0 -206 -317 rlineto
            endchar
          </CharString>
          <CharString index="45">
            1 -33 rlineto
            5 11 21 4 19 hhcurveto
            63 50 -30 -53 -53 -48 -32 -62 -47 -51 return
          </CharString>
          <CharString index="46">
            1167 rmoveto
            -43 callgsubr
            402 hmoveto
            -43 callgsubr
            return
          </CharString>
          <CharString index="47">
            1578 95 callsubr
            return
          </CharString>
          <CharString index="48">
            1463 -66 callgsubr
            return
          </CharString>
          <CharString index="49">
            vlineto
            -66 -14 -17 -107 -15 vhcurveto
            -34 return
          </CharString>
          <CharString index="50">
            1122 -56 callgsubr
            return
          </CharString>
          <CharString index="51">
            rmoveto
            318 -776 -73 -157 -117 -198 -86 -102 rlinecurve
            -3 164 vlineto
            157 454 86 212 216 535 61 151 27 26 85 15 rlinecurve
            35 -323 -35 vlineto
            119 -17 20 -28 -50 -137 rrcurveto
            -190 -517 -196 524 -49 131 19 27 119 17 rlinecurve
            35 -465 -35 vlineto
            83 -16 27 -23 48 -118 rrcurveto
            endchar
          </CharString>
          <CharString index="52">
            164 135 131 245 239 -137 136 -161 -164 -135 -131 -245 -239 137 -136 161 hvcurveto
            return
          </CharString>
          <CharString index="53">
            367 1480 -106 callsubr
            -105 callsubr
            -22 callsubr
            return
          </CharString>
          <CharString index="54">
            47 36 36 46 47 -36 37 -47 hvcurveto
            -5 hlineto
            -47 -36 -37 -47 -46 36 -36 47 hvcurveto
            return
          </CharString>
          <CharString index="55">
            45 34 30 40 39 -34 31 -45 hvcurveto
            -5 hlineto
            -45 -34 -31 -39 -40 34 -30 45 hvcurveto
            return
          </CharString>
          <CharString index="56">
            1088 rmoveto
            43 hlineto
            -148 352 rlineto
            -216 -7 hlineto
            return
          </CharString>
          <CharString index="57">
            523 34 vlineto
            -135 17 -19 27 97 vvcurveto
            return
          </CharString>
          <CharString index="58">
            1603 rmoveto
            471 102 -471 hlineto
            return
          </CharString>
          <CharString index="59">
            161 -76 callsubr
            return
          </CharString>
          <CharString index="60">
            -13 -13 -1 -2 -12 hvcurveto
            return
          </CharString>
          <CharString index="61">
            1152 rmoveto
            88 68 64 182 -6 hvcurveto
            -39 hlineto
            -100 -5 -25 -30 -41 hhcurveto
            -29 -23 12 27 -35 hvcurveto
            -30 22 rlineto
            37 -51 -40 23 -52 hhcurveto
            -88 -68 -63 -183 6 hvcurveto
            39 hlineto
            100 5 25 30 41 hhcurveto
            29 23 -12 -26 35 hvcurveto
            30 -23 rlineto
            -37 51 41 -23 51 hhcurveto
            return
          </CharString>
          <CharString index="62">
            rmoveto
            322 -532 rlineto
            -496 -34 callsubr
            -50 callsubr
            162 callsubr
            endchar
          </CharString>
          <CharString index="63">
            -527 -722 527 -15 callsubr
            -107 callsubr
            return
          </CharString>
          <CharString index="64">
            -341 rlineto
            32 hlineto
            47 231 85 52 269 15 58 3 rcurveline
            return
          </CharString>
          <CharString index="65">
            1198 rmoveto
            522 120 -522 hlineto
            return
          </CharString>
          <CharString index="66">
            365 978 -68 callsubr
            return
          </CharString>
          <CharString index="67">
            304 hmoveto
            -53 callsubr
            return
          </CharString>
          <CharString index="68">
            288 hmoveto
            -52 callsubr
            return
          </CharString>
          <CharString index="69">
            -678 vlineto
            -297 -40 -145 -161 -138 vhcurveto
            22 -29 57 41 rlineto
            240 171 79 109 307 vvcurveto
            endchar
          </CharString>
          <CharString index="70">
            243 107 243 -107 0 38 -228 197 -31 0 -227 -197 rlineto
            return
          </CharString>
          <CharString index="71">
            1537 rmoveto
            42 hlineto
            -129 268 rlineto
            -216 -5 hlineto
            return
          </CharString>
          <CharString index="72">
            494 34 vlineto
            -115 18 -21 18 85 vvcurveto
            return
          </CharString>
          <CharString index="73">
            vlineto
            -97 -19 -27 -134 -17 vhcurveto
            -34 return
          </CharString>
          <CharString index="74">
            -1229 -34 callsubr
            return
          </CharString>
          <CharString index="75">
            1560 161 callsubr
            return
          </CharString>
          <CharString index="76">
            -35 callsubr
            endchar
          </CharString>
          <CharString index="77">
            19 380 rlineto
            -32 hlineto
            -54 -265 -82 -52 -301 -13 rrcurveto
            -255 -10 0 680 282 -6 123 -4 25 -46 28 -149 rlinecurve
            29 450 -29 hlineto
            -31 -151 -23 -44 -122 -4 rrcurveto
            -282 -6 0 644 216 -8 282 -12 89 -56 54 -225 rlinecurve
            32 hlineto
            return
          </CharString>
          <CharString index="78">
            1446 rmoveto
            -96 -70 -51 -64 -34 hvcurveto
            -32 vlineto
            29 27 45 20 53 hhcurveto
            68 43 -36 -52 -59 -46 -51 -81 -56 hvcurveto
            42 hlineto
            164 70 57 66 80 vvcurveto
            80 -71 56 -101 vhcurveto
            return
          </CharString>
          <CharString index="79">
            -200 111 -75 136 101 92 49 48 35 vhcurveto
            -28 callgsubr
            return
          </CharString>
          <CharString index="80">
            1432 rmoveto
            132 vlineto
            -486 -183 rlineto
            -37 vlineto
            return
          </CharString>
          <CharString index="81">
            1225 1444 rmoveto
            -1168 hlineto
            -15 return
          </CharString>
          <CharString index="82">
            -1015 -65 callsubr
            -107 callsubr
            return
          </CharString>
          <CharString index="83">
            378 1444 12 callsubr
            return
          </CharString>
          <CharString index="84">
            105 101 60 109 102 -85 65 -102 return
          </CharString>
          <CharString index="85">
            -1178 32 callsubr
            return
          </CharString>
          <CharString index="86">
            -110 -106 callsubr
            return
          </CharString>
          <CharString index="87">
            1088 94 callsubr
            return
          </CharString>
          <CharString index="88">
            rmoveto
            -159 110 -102 151 -35 vhcurveto
            -150 -27 -97 -73 -107 vvcurveto
            -110 -1 108 -68 149 hhcurveto
            -206 -22 -104 -84 -112 vvcurveto
            -150 184 -97 267 248 224 137 214 176 -131 94 -239 vhcurveto
            -172 hlineto
            -116 -61 34 67 59 47 41 85 18 hvcurveto
            -8 43 35 -4 36 hhcurveto
            210 192 124 202 117 -62 92 -101 44 hvcurveto
            276 -14 0 66 -327 -18 rlineto
            20 -53 -65 14 -73 hhcurveto
            -220 -187 -128 -201 hvcurveto
            196 9 rmoveto
            168 76 109 131 137 77 -119 -167 -168 -80 -107 -127 -131 -83 114 170 vhcurveto
            -69 -890 rmoveto
            100 58 73 121 17 vhcurveto
            183 hlineto
            167 72 -65 -112 -143 -130 -87 -183 -182 -106 93 124 hvcurveto
            endchar
          </CharString>
          <CharString index="89">
            rmoveto
            1039 vlineto
            62 callsubr
            -89 callsubr
            -1009 vlineto
            -339 -70 -166 -214 -140 vhcurveto
            16 -30 rlineto
            306 149 178 154 342 vvcurveto
            endchar
          </CharString>
          <CharString index="90">
            rmoveto
            146 105 86 132 -8 hvcurveto
            -36 hlineto
            -61 -5 -85 -40 -117 hhcurveto
            -116 -86 40 61 -5 hvcurveto
            -36 hlineto
            -132 -8 105 -86 146 hhcurveto
            return
          </CharString>
          <CharString index="91">
            1440 rmoveto
            -192 -7 hlineto
            302 -345 rlineto
            43 hlineto
            182 352 rmoveto
            -182 -7 hlineto
            233 -345 rlineto
            43 hlineto
            return
          </CharString>
          <CharString index="92">
            vlineto
            84 21 19 115 17 vhcurveto
            35 -494 23 callsubr
            return
          </CharString>
          <CharString index="93">
            -327 -179 337 387 401 188 261 312 -82 callgsubr
          </CharString>
          <CharString index="94">
            47 36 36 47 46 -36 37 -47 hvcurveto
            -5 hlineto
            -47 -36 -37 -46 -47 36 -36 47 hvcurveto
            return
          </CharString>
          <CharString index="95">
            rmoveto
            135 callsubr
            117 -177 -106 callsubr
            -105 callsubr
            return
          </CharString>
          <CharString index="96">
            1432 rmoveto
            486 -88 0 37 -486 183 rlineto
            return
          </CharString>
          <CharString index="97">
            1047 hmoveto
            55 callsubr
            88 callsubr
            return
          </CharString>
          <CharString index="98">
            512 34 vlineto
            -135 17 -19 27 97 vvcurveto
            return
          </CharString>
          <CharString index="99">
            rmoveto
            81 56 57 117 -1 hvcurveto
            -36 hlineto
            return
          </CharString>
          <CharString index="100">
            1588 rmoveto
            175 callsubr
            return
          </CharString>
          <CharString index="101">
            1849 178 callsubr
            return
          </CharString>
          <CharString index="102">
            -146 -116 -71 -103 -56 vhcurveto
            return
          </CharString>
          <CharString index="103">
            1128 rmoveto
            174 callsubr
            return
          </CharString>
          <CharString index="104">
            rmoveto
            277 -779 59 0 292 776 278 -776 58 0 278 744 56 152 30 25 83 15 rlinecurve
            35 -310 -35 vlineto
            108 -16 18 -29 -46 -138 rrcurveto
            -171 -511 -177 518 -46 132 17 29 104 15 rlinecurve
            35 -424 -35 vlineto
            104 -15 15 -30 -44 -131 rrcurveto
            -178 -518 -170 518 -44 132 14 28 110 16 rlinecurve
            35 -452 -35 vlineto
            85 -17 34 -21 42 -119 rrcurveto
            endchar
          </CharString>
          <CharString index="105">
            rmoveto
            -461 319 -293 426 195 198 60 89 113 vhcurveto
            379 vlineto
            94 19 20 121 12 vhcurveto
            34 -488 -34 vlineto
            130 -13 18 -19 -94 vvcurveto
            -394 vlineto
            -51 -61 -107 -33 -128 hhcurveto
            -333 -180 337 387 401 189 261 315 238 147 -136 -242 54 hvcurveto
            31 hlineto
            -13 326 rlineto
            54 -75 -149 48 -242 hhcurveto
            -406 -331 -260 -472 hvcurveto
            endchar
          </CharString>
          <CharString index="106">
            82 63 57 164 -5 hvcurveto
            -36 hlineto
            -90 -5 -23 -27 -38 hhcurveto
            -27 -22 11 24 -32 hvcurveto
            -28 20 rlineto
            33 -48 -37 21 -48 hhcurveto
            -82 -63 -57 -164 5 hvcurveto
            36 hlineto
            90 5 23 27 39 hhcurveto
            26 22 -11 -23 32 hvcurveto
            28 -21 rlineto
            -33 48 38 -21 47 hhcurveto
            endchar
          </CharString>
          <CharString index="107">
            rmoveto
            150 107 73 112 -8 hvcurveto
            -37 hlineto
            -52 -5 -87 -34 -120 hhcurveto
            -119 -88 34 52 -5 hvcurveto
            -37 hlineto
            -112 -8 107 -73 150 hhcurveto
            return
          </CharString>
          <CharString index="108">
            -56 -1 -28 -20 -77 callgsubr
            20 44 hhcurveto
            26 27 -7 -15 39 hvcurveto
            28 -10 rlineto
            -15 39 39 -11 43 hhcurveto
            return
          </CharString>
          <CharString index="109">
            rmoveto
            -463 319 -291 420 210 180 57 52 69 vhcurveto
            14 327 rlineto
            -96 callgsubr
            return
          </CharString>
          <CharString index="110">
            45 34 30 40 40 -34 30 -45 hvcurveto
            -5 hlineto
            -45 -34 -30 -40 -40 34 -30 45 hvcurveto
            return
          </CharString>
          <CharString index="111">
            1342 1161 238 -97 callsubr
            return
          </CharString>
          <CharString index="112">
            1550 414 155 18 callsubr
            return
          </CharString>
          <CharString index="113">
            500 34 vlineto
            -122 18 -20 21 88 vvcurveto
            return
          </CharString>
          <CharString index="114">
            34 vlineto
            -134 17 -19 27 97 vvcurveto
            return
          </CharString>
          <CharString index="115">
            -450 rmoveto
            -23 callsubr
            return
          </CharString>
          <CharString index="116">
            1627 95 722 rmoveto
            return
          </CharString>
          <CharString index="117">
            645 161 257 rmoveto
            return
          </CharString>
          <CharString index="118">
            rmoveto
            577 vlineto
            144 -2 458 -730 rlineto
            308 32 hlineto
            -70 21 -51 43 -134 214 rrcurveto
            -359 580 276 298 136 147 74 52 105 23 rlinecurve
            34 -401 -34 vlineto
            141 -14 -1 -51 -108 -128 rrcurveto
            -374 -443 -144 -2 rlineto
            517 -15 callsubr
            -107 callsubr
            -31 callsubr
          </CharString>
          <CharString index="119">
            rmoveto
            -335 -34 hlineto
            106 -23 29 -31 -108 vvcurveto
            -10 -989 -1 -168 -19 -39 -130 -18 rlinecurve
            -34 378 34 vlineto
            -132 16 -20 38 -2 171 rrcurveto
            -18 1032 935 -1291 104 0 9 1185 2 168 19 39 129 18 rlinecurve
            34 -377 -34 vlineto
            132 -16 18 -38 4 -171 19 -907 rcurveline
            return
          </CharString>
          <CharString index="120">
            1274 rmoveto
            -110 114 -66 128 128 114 66 111 109 -113 68 -129 -129 -113 -68 -110 vhcurveto
            144 hmoveto
            80 39 59 59 59 39 -59 -79 -83 -39 -55 -59 -59 -39 55 82 vhcurveto
            return
          </CharString>
          <CharString index="121">
            rmoveto
            395 -1212 86 0 390 1216 379 -1216 86 0 383 1164 65 199 36 -97 callgsubr
            156 callsubr
            endchar
          </CharString>
          <CharString index="122">
            1367 -8 callsubr
            -55 -1 -28 -21 -77 callgsubr
            21 44 hhcurveto
            26 27 -8 -15 39 hvcurveto
            28 -10 rlineto
            -15 39 39 -11 43 hhcurveto
            return
          </CharString>
          <CharString index="123">
            rmoveto
            163 130 65 92 62 hvcurveto
            115 callsubr
            -299 200 -203 271 hvcurveto
            endchar
          </CharString>
          <CharString index="124">
            1148 347 978 -106 callsubr
            -78 callsubr
            return
          </CharString>
          <CharString index="125">
            rmoveto
            562 722 -562 105 callsubr
            -94 callgsubr
            return
          </CharString>
          <CharString index="126">
            rmoveto
            67 55 55 68 68 -55 54 -67 -67 -55 -54 -68 -68 return
          </CharString>
          <CharString index="127">
            15 21 -27 hvcurveto
            -1 -34 rlineto
            -47 30 72 -34 86 hhcurveto
            return
          </CharString>
          <CharString index="128">
            rmoveto
            112 vlineto
            -499 -155 rlineto
            -32 vlineto
            return
          </CharString>
          <CharString index="129">
            1415 747 75 callsubr
            return
          </CharString>
          <CharString index="130">
            -34 vlineto
            123 -18 19 -21 -88 vvcurveto
            return
          </CharString>
          <CharString index="131">
            vlineto
            -88 -19 -21 -123 -18 vhcurveto
            -34 return
          </CharString>
          <CharString index="132">
            1869 172 callsubr
            return
          </CharString>
          <CharString index="133">
            1833 -92 callgsubr
            return
          </CharString>
          <CharString index="134">
            1805 -74 callgsubr
            return
          </CharString>
          <CharString index="135">
            1229 -21 callgsubr
            return
          </CharString>
          <CharString index="136">
            -318 -36 0 -30 59 -18 rlineto
            return
          </CharString>
          <CharString index="137">
            -147 -118 -73 -104 -55 vhcurveto
            return
          </CharString>
          <CharString index="138">
            87 484 -83 callsubr
            return
          </CharString>
          <CharString index="139">
            vlineto
            -69 -17 -17 -104 -16 vhcurveto
            -34 return
          </CharString>
          <CharString index="140">
            -35 vlineto
            56 callsubr
            return
          </CharString>
          <CharString index="141">
            rmoveto
            -138 -204 -45 -38 -101 -15 rrcurveto
            -34 383 34 vlineto
            -146 20 -1 43 111 181 rrcurveto
            241 382 292 -457 67 -102 -3 -46 -131 -21 rlinecurve
            -34 520 34 vlineto
            -93 23 -43 31 -78 123 rrcurveto
            -354 555 273 397 133 194 45 38 101 15 rlinecurve
            34 -383 -34 vlineto
            146 -20 2 -43 -110 -175 rrcurveto
            -231 -369 -280 438 -72 114 3 35 136 20 rlinecurve
            34 -510 -34 vlineto
            91 -23 36 -33 78 -121 341 -534 rcurveline
            endchar
          </CharString>
          <CharString index="142">
            66 55 19 22 31 hvcurveto
            31 vlineto
            -4 -12 -15 -3 -17 hhcurveto
            -61 -45 37 88 hvcurveto
            510 vlineto
            207 -148 91 -219 -216 -162 -93 -124 -59 48 -44 56 59 46 44 57 59 -46 44 -53 vhcurveto
            -5 hlineto
            38 50 71 21 79 hhcurveto
            150 98 -70 -190 hvcurveto
            -105 vlineto
            -203 -44 rlineto
            -272 -59 -109 -90 -148 vvcurveto
            -144 120 -96 160 vhcurveto
            -80 274 rmoveto
            120 65 74 212 47 vhcurveto
            107 24 rlineto
            -356 vlineto
            -65 -42 -67 -33 -87 hhcurveto
            -106 -82 69 120 hvcurveto
            return
          </CharString>
          <CharString index="143">
            rmoveto
            -346 -34 hlineto
            106 -19 29 -35 -4 -108 rrcurveto
            -39 -1000 -8 -159 -20 -38 -129 -17 rlinecurve
            -34 373 34 vlineto
            -130 18 -17 37 3 161 rrcurveto
            15 1040 508 -1290 79 0 73 211 412 1075 36 -1127 3 -90 -22 -20 -117 -15 rlinecurve
            -34 492 34 vlineto
            -121 16 -16 20 -3 91 rrcurveto
            -38 1122 -2 87 21 23 115 17 rlinecurve
            34 -357 vlineto
            -432 -1207 rlineto
            endchar
          </CharString>
          <CharString index="144">
            rmoveto
            267 -221 146 -385 vhcurveto
            -494 -65 callsubr
            -107 callsubr
            -9 callsubr
            416 136 vlineto
            335 271 143 297 hvcurveto
            -232 -12 rmoveto
            -222 -130 -152 -286 -11 vhcurveto
            -94 -3 0 773 94 -3 rlineto
            288 -11 128 -154 -217 vvcurveto
            endchar
          </CharString>
          <CharString index="145">
            -179 212 141 127 73 110 53 vhcurveto
            -174 vlineto
            -87 callsubr
            -56 18 -7 12 53 vvcurveto
            1322 99 callsubr
            -451 vlineto
            73 -46 -90 49 -120 hhcurveto
            -258 -208 -203 -306 hvcurveto
            return
          </CharString>
          <CharString index="146">
            336 -190 244 -252 106 vhcurveto
            -6 30 35 -4 35 hhcurveto
            173 120 58 119 88 -64 76 -85 37 hvcurveto
            -35 hlineto
            20 -24 16 -53 -52 vvcurveto
            -122 -83 -85 -165 vhcurveto
            -80 -85 24 -110 hhcurveto
            -434 -283 -332 -411 hvcurveto
            -100 callsubr
            -98 callsubr
          </CharString>
          <CharString index="147">
            18 380 rlineto
            -31 hlineto
            -59 -269 -92 -47 -342 -13 rrcurveto
            -318 -11 820 1372 rlineto
            32 -1026 vlineto
            -19 -341 rlineto
            31 hlineto
            54 224 71 55 359 13 rrcurveto
            285 9 -818 -1372 rlineto
            -32 vlineto
            return
          </CharString>
          <CharString index="148">
            rmoveto
            -9 -278 rlineto
            31 hlineto
            40 176 60 44 204 11 rrcurveto
            194 8 -540 -898 rlineto
            -31 762 vlineto
            8 308 rlineto
            -32 hlineto
            -37 -209 -63 -43 -182 -8 rrcurveto
            -237 -9 544 897 rlineto
            32 vlineto
            return
          </CharString>
          <CharString index="149">
            rmoveto
            -411 277 -160 293 360 194 221 333 3 vhcurveto
            6 892 rlineto
            -2 16 18 -2 17 hhcurveto
            143 79 60 98 83 -60 78 -83 37 hvcurveto
            -34 hlineto
            19 -24 16 -51 158 callsubr
            endchar
          </CharString>
          <CharString index="150">
            164 130 65 93 62 vhcurveto
            34 vlineto
            -58 -55 -85 -41 -113 hhcurveto
            -223 107 callsubr
            646 121 callsubr
            -459 -4 rlineto
            232 5 94 131 154 hhcurveto
            return
          </CharString>
          <CharString index="151">
            593 vlineto
            53 51 107 34 100 hhcurveto
            40 39 -5 -5 19 hvcurveto
            10 13 10 28 28 vvcurveto
            53 -30 45 -70 -82 -81 -72 -144 -115 vhcurveto
            return
          </CharString>
          <CharString index="152">
            131 170 115 100 -115 458 -105 hlineto
            -363 -493 rlineto
            -65 337 vlineto
            100 vmoveto
            -251 hlineto
            251 370 rlineto
            endchar
          </CharString>
          <CharString index="153">
            -55 18 -7 11 54 vvcurveto
            820 99 callsubr
            -619 vlineto
            -70 -42 -76 -48 -100 hhcurveto
            -144 -80 84 170 hvcurveto
            return
          </CharString>
          <CharString index="154">
            524 34 vlineto
            -102 16 -35 36 -56 152 rrcurveto
            -793 328 rmoveto
            221 643 227 -643 rlineto
            return
          </CharString>
          <CharString index="155">
            652 vlineto
            263 -11 0 67 -263 -12 rlineto
            206 -17 vlineto
            -304 -237 rlineto
            -24 124 vlineto
            return
          </CharString>
          <CharString index="156">
            1170 63 callsubr
            38 callsubr
            205 23 rmoveto
            -81 callgsubr
            return
          </CharString>
          <CharString index="157">
            rmoveto
            -320 -36 0 -30 59 -18 rlineto
            57 -100 callgsubr
            150 callsubr
            endchar
          </CharString>
          <CharString index="158">
            rmoveto
            53 42 42 51 51 -42 41 -53 -53 -42 -41 -51 -51 42 -42 53 hvcurveto
            return
          </CharString>
          <CharString index="159">
            -65 -13 -17 -101 -14 vhcurveto
            -34 432 34 vlineto
            -107 16 -14 17 69 vvcurveto
            return
          </CharString>
          <CharString index="160">
            -461 354 -282 366 433 284 333 411 return
          </CharString>
          <CharString index="161">
            1834 rmoveto
            499 -75 0 32 -499 155 rlineto
            return
          </CharString>
          <CharString index="162">
            19 394 rlineto
            -32 hlineto
            -62 -277 -89 -58 -283 -12 return
          </CharString>
          <CharString index="163">
            104 -15 17 -18 -69 vvcurveto
            -695 32 callsubr
            return
          </CharString>
          <CharString index="164">
            1811 rmoveto
            500 83 -500 hlineto
            return
          </CharString>
          <CharString index="165">
            1392 rmoveto
            487 97 -487 hlineto
            return
          </CharString>
          <CharString index="166">
            1423 rmoveto
            173 callsubr
            return
          </CharString>
          <CharString index="167">
            1834 21 callsubr
            return
          </CharString>
          <CharString index="168">
            579 -18 -90 callsubr
            return
          </CharString>
          <CharString index="169">
            88 20 21 122 18 vhcurveto
            34 return
          </CharString>
          <CharString index="170">
            87 476 rmoveto
            -315 191 return
          </CharString>
          <CharString index="171">
            rmoveto
            265 224 166 254 200 -121 136 -241 87 hvcurveto
            -112 42 rlineto
            -179 66 -106 83 151 vvcurveto
            147 102 104 193 181 127 -120 -228 53 vhcurveto
            32 hlineto
            -13 306 rlineto
            47 -60 -131 45 -185 hhcurveto
            -267 -214 -137 -247 -196 128 -137 231 -82 hvcurveto
            114 -41 rlineto
            195 -71 91 -95 -149 vvcurveto
            -172 -125 -109 -178 -207 -170 124 260 -58 vhcurveto
            -32 hlineto
            14 -325 rlineto
            -60 87 155 -49 207 hhcurveto
            return
          </CharString>
          <CharString index="172">
            rmoveto
            -248 356 195 262 80 108 31 26 91 21 rlinecurve
            35 -328 -35 vlineto
            114 -15 18 -21 -64 -98 rrcurveto
            -164 -245 -168 242 -65 96 13 32 122 9 rlinecurve
            35 -453 -35 vlineto
            67 -12 34 -27 58 -83 rrcurveto
            243 -349 -196 -266 -82 -112 -33 -27 -95 -23 rlinecurve
            -34 331 34 vlineto
            -106 15 -25 24 67 103 rrcurveto
            165 248 173 -249 68 -100 -14 -31 -121 -10 rlinecurve
            -34 456 34 vlineto
            -69 14 -36 27 -59 85 rrcurveto
            endchar
          </CharString>
          <CharString index="173">
            rmoveto
            -145 101 -85 174 -56 vhcurveto
            76 -25 rlineto
            131 -42 58 -55 -96 vvcurveto
            -98 -81 -73 -126 -134 -137 102 193 -39 vhcurveto
            -32 hlineto
            11 -265 rlineto
            -45 64 125 -33 143 hhcurveto
            186 183 104 181 155 -98 93 -172 55 hvcurveto
            -76 24 rlineto
            -123 40 -71 46 94 vvcurveto
            95 75 66 127 128 102 -90 -169 30 vhcurveto
            32 hlineto
            -5 246 rlineto
            31 -46 -103 30 -139 hhcurveto
            -206 -158 -99 -179 hvcurveto
            return
          </CharString>
          <CharString index="174">
            rmoveto
            145 132 80 142 113 -85 84 -130 11 hvcurveto
            114 16 76 64 84 vvcurveto
            95 -82 61 -127 -132 -88 -71 -103 -31 vhcurveto
            22 -11 rlineto
            65 29 61 36 74 hhcurveto
            79 49 -43 -69 -77 -68 -54 -152 -21 hvcurveto
            -29 vlineto
            2 12 20 2 17 hhcurveto
            110 78 -64 -106 -101 -70 -63 -90 -47 -42 16 24 -27 hvcurveto
            2 hlineto
            35 29 28 36 37 -30 27 -36 -37 -30 -27 -38 -80 93 -66 127 hvcurveto
            endchar
          </CharString>
          <CharString index="175">
            315 -191 178 -212 -140 -127 -71 -109 -53 vhcurveto
            1 675 29 callsubr
            55 -18 6 -11 -53 vvcurveto
            -1314 71 vlineto
            108 122 rlineto
            -81 43 99 -59 130 hhcurveto
            260 209 203 307 hvcurveto
            -205 -24 rmoveto
            -257 -124 -171 -185 -94 -81 51 64 -33 vhcurveto
            616 vlineto
            78 45 75 43 104 hhcurveto
            171 122 -165 -259 hvcurveto
            return
          </CharString>
          <CharString index="176">
            rmoveto
            -79 -68 -34 -37 -33 hvcurveto
            -23 callgsubr
            -62 -6 -265 -68 vvcurveto
            -218 123 -145 223 228 204 198 361 274 -87 170 -125 -78 -50 -68 -92 25 vhcurveto
            140 -38 92 -157 -201 vvcurveto
            -230 -108 -117 -160 -154 -78 103 189 vhcurveto
            73 8 259 42 vvcurveto
            157 -65 73 -121 vhcurveto
            endchar
          </CharString>
          <CharString index="177">
            1680 840 -22 rmoveto
            409 336 336 409 409 -336 336 -409 -409 -336 -336 -409 -409 336 -336 409 hvcurveto
            37 vmoveto
            -386 -317 319 389 389 317 319 386 386 317 -319 -389 -389 -318 -319 -385 hvcurveto
            return
          </CharString>
          <CharString index="178">
            1890 rmoveto
            -73 -49 -33 -29 -27 hvcurveto
            -27 vlineto
            13 19 35 10 41 hhcurveto
            54 35 -22 -35 -35 -30 -24 -58 -16 hvcurveto
            30 -20 rlineto
            111 22 62 32 64 vvcurveto
            64 -73 36 -77 vhcurveto
            -461 -386 rmoveto
            -52 callgsubr
            return
          </CharString>
          <CharString index="179">
            173 100 109 110 60 -41 40 -53 -54 -38 -41 -51 -52 39 -38 49 13 13 3 5 11 hvcurveto
            -59 -36 -75 -43 -101 hhcurveto
            -102 -74 43 59 -36 hvcurveto
            -5 11 13 -3 13 hhcurveto
            48 40 38 52 51 -39 41 -53 -53 -41 -40 -60 -110 100 -109 173 hvcurveto
            return
          </CharString>
          <CharString index="180">
            174 90 112 107 61 -41 40 -54 -54 -38 -41 -51 -52 41 -39 48 13 13 3 6 12 hvcurveto
            -57 -33 -69 -45 -102 hhcurveto
            -102 -69 45 57 -33 hvcurveto
            -6 12 13 -3 13 hhcurveto
            48 41 39 52 51 -38 41 -54 -54 -41 -40 -61 -107 90 -112 174 hvcurveto
            return
          </CharString>
          <CharString index="181">
            119 -407 vlineto
            125 101 rlineto
            194 149 73 80 102 vvcurveto
            112 -85 75 -131 -130 -87 -68 -114 -32 vhcurveto
            23 -10 rlineto
            65 26 54 43 76 hhcurveto
            81 52 -54 -81 -92 -51 -81 -149 -155 hvcurveto
            -106 -105 rlineto
            -85 vlineto
            endchar
          </CharString>
          <CharString index="182">
            rmoveto
            450 -356 247 -511 vhcurveto
            -492 -65 callsubr
            -107 callsubr
            -98 callgsubr
            -240 -20 97 callsubr
            138 callsubr
            return
          </CharString>
          <CharString index="183">
            rmoveto
            228 -199 124 -290 14 vhcurveto
            224 17 197 106 201 vvcurveto
            226 -217 117 -347 vhcurveto
            -520 -65 callsubr
            -107 callsubr
            154 callsubr
            endchar
          </CharString>
          <CharString index="184">
            rmoveto
            10 -730 rlineto
            -175 2 88 -81 136 hhcurveto
            100 88 45 65 46 hvcurveto
            35 vlineto
            -23 -28 -43 -18 -59 hhcurveto
            -97 -56 61 124 1 hvcurveto
            87 9 451 7 159 vhcurveto
            endchar
          </CharString>
          <CharString index="185">
            1545 rmoveto
            -74 -50 -38 -34 -28 hvcurveto
            -32 vlineto
            14 19 36 13 42 128 callsubr
            -74 42 -79 vhcurveto
            -430 -476 rmoveto
            -37 callsubr
            return
          </CharString>
          <CharString index="186">
            1088 rmoveto
            170 345 rlineto
            7 -178 vlineto
            -29 -352 rlineto
            -160 58 rmoveto
            -42 callgsubr
            449 hmoveto
            -42 callgsubr
            return
          </CharString>
          <CharString index="187">
            3 36 rmoveto
            85 callsubr
            endchar
          </CharString>
          <CharString index="188">
            1440 rmoveto
            -94 -352 43 0 233 345 rlineto
            7 vlineto
            153 hmoveto
            -154 -352 44 0 302 345 rlineto
            7 vlineto
            return
          </CharString>
          <CharString index="189">
            -359 -260 rmoveto
            -52 callgsubr
            return
          </CharString>
          <CharString index="190">
            -35 vlineto
            115 -17 21 -18 -83 vvcurveto
            -1247 -585 1247 vlineto
            83 21 18 115 17 vhcurveto
            35 return
          </CharString>
          <CharString index="191">
            299 187 -305 -402 -385 -134 -294 -332 -300 -187 306 402 vhcurveto
            return
          </CharString>
          <CharString index="192">
            -89 -50 114 239 236 47 90 87 90 50 -113 -239 -236 -47 -91 -88 hvcurveto
            return
          </CharString>
          <CharString index="193">
            1812 rmoveto
            499 -75 0 32 -499 155 rlineto
            -420 vmoveto
            -52 callgsubr
            return
          </CharString>
          <CharString index="194">
            rmoveto
            -207 -144 -206 144 -44 0 201 -268 96 0 201 268 rlineto
            return
          </CharString>
          <CharString index="195">
            -186 -7 rcurveline
            1229 vlineto
            97 93 callsubr
            -107 callsubr
            vlineto
            return
          </CharString>
          <CharString index="196">
            1463 166 1289 rmoveto
            -95 callgsubr
            179 callsubr
            return
          </CharString>
          <CharString index="197">
            483 17 -545 1 -45 -12 -11 -62 -8 rlinecurve
            -27 303 27 vlineto
            return
          </CharString>
          <CharString index="198">
            54 44 41 50 52 -44 41 -54 -54 -44 -41 -52 -50 44 -41 54 hvcurveto
            return
          </CharString>
          <CharString index="199">
            rmoveto
            300 264 rlineto
            5 -208 vlineto
            -135 -268 rlineto
            return
          </CharString>
          <CharString index="200">
            19 27 135 17 vhcurveto
            34 -512 23 callsubr
            return
          </CharString>
          <CharString index="201">
            rmoveto
            202 345 rlineto
            7 -186 vlineto
            -55 -352 rlineto
            return
          </CharString>
          <CharString index="202">
            rmoveto
            -41 callgsubr
            305 hmoveto
            -41 callgsubr
            return
          </CharString>
          <CharString index="203">
            -705 rmoveto
            63 hlineto
            831 1444 rlineto
            -63 hlineto
            return
          </CharString>
          <CharString index="204">
            rmoveto
            -418 -242 -253 -416 -13 vhcurveto
            -103 -3 return
          </CharString>
          <CharString index="205">
            rmoveto
            179 401 -168 0 -43 -401 rlineto
            return
          </CharString>
          <CharString index="206">
            vlineto
            29 callsubr
            -105 callsubr
            return
          </CharString>
          <CharString index="207">
            -104 callsubr
            432 34 vlineto
            -102 return
          </CharString>
          <CharString index="208">
            -350 -298 rmoveto
            -37 callsubr
            return
          </CharString>
          <CharString index="209">
            1057 793 hmoveto
            114 callsubr
            return
          </CharString>
          <CharString index="210">
            351 1445 122 callsubr
            return
          </CharString>
          <CharString index="211">
            34 vlineto
            -122 18 -20 21 88 vvcurveto
            endchar
          </CharString>
          <CharString index="212">
            vlineto
            -85 -19 -18 -117 -18 vhcurveto
            -34 return
          </CharString>
          <CharString index="213">
            1156 1069 492 rmoveto
            return
          </CharString>
          <CharString index="214">
            -149 189 270 -7 hvcurveto
            return
          </CharString>
          <CharString index="215">
            rmoveto
            183 134 100 196 19 hvcurveto
            -190 62 180 -106 195 hhcurveto
            163 128 72 85 61 hvcurveto
            34 vlineto
            -57 -56 -82 -41 -114 hhcurveto
            -220 -151 190 272 -6 hvcurveto
            636 hlineto
            2 15 1 20 19 vvcurveto
            232 -143 162 -244 -139 -112 -55 -94 -74 vhcurveto
            104 -53 -127 45 -132 hhcurveto
            -213 -150 -98 -115 -58 47 -45 57 59 46 45 59 57 -45 42 -54 hvcurveto
            35 49 69 22 79 hhcurveto
            142 115 -84 -204 hvcurveto
            -69 vlineto
            -196 -37 rlineto
            -282 -55 -117 -109 -152 vvcurveto
            -146 118 -91 165 vhcurveto
            746 955 rmoveto
            138 62 -133 -179 -15 -1 -15 -1 -13 hvcurveto
            -448 -4 rlineto
            232 6 98 127 146 hhcurveto
            -653 -870 rmoveto
            -106 -72 70 118 121 71 86 196 43 hvcurveto
            130 27 rlineto
            -196 vlineto
            -191 -105 -78 -114 vhcurveto
            endchar
          </CharString>
          <CharString index="216">
            rmoveto
            -917 hlineto
            -614 -1164 -104 -196 -45 -33 -103 -17 rlinecurve
            -34 390 34 vlineto
            -134 19 -23 42 94 184 rrcurveto
            185 365 448 0 2 -489 rlineto
            -85 -20 -18 -116 -18 vhcurveto
            -34 1011 vlineto
            17 380 rlineto
            -32 hlineto
            -52 -265 -78 -51 -293 -14 rrcurveto
            -231 -10 -4 680 248 -6 124 -4 24 -46 29 -149 rlinecurve
            29 hlineto
            -2 450 rlineto
            -30 hlineto
            -29 -151 -23 -44 -122 -4 rrcurveto
            -248 -6 -3 644 192 -8 274 -13 86 -55 55 -225 rlinecurve
            32 hlineto
            -902 300 rmoveto
            58 hlineto
            3 -710 rlineto
            -422 hlineto
            endchar
          </CharString>
          <CharString index="217">
            rmoveto
            83 66 34 48 23 hvcurveto
            -52 10 48 -27 58 hhcurveto
            41 36 11 14 20 hvcurveto
            24 vlineto
            -2 -6 -8 -1 -9 hhcurveto
            -30 -24 19 42 hvcurveto
            243 vlineto
            114 -84 51 -135 -132 -90 -53 -68 -37 30 -27 38 38 29 28 37 32 -22 24 -28 6 vhcurveto
            12 24 30 7 32 hhcurveto
            81 49 -36 -92 hvcurveto
            -50 vlineto
            -109 -22 rlineto
            -152 -31 -60 -50 -75 vvcurveto
            -73 64 -50 89 vhcurveto
            -11 147 rmoveto
            58 33 36 98 21 vhcurveto
            48 10 rlineto
            -168 vlineto
            -29 -18 -32 -15 -41 hhcurveto
            -50 -38 31 56 hvcurveto
            endchar
          </CharString>
          <CharString index="218">
            rmoveto
            239 -197 148 -382 vhcurveto
            -507 -34 hlineto
            123 -16 19 -20 -91 vvcurveto
            -1122 vlineto
            -86 -19 -20 -123 -21 vhcurveto
            -34 494 34 vlineto
            -115 20 -21 19 82 vvcurveto
            512 225 vlineto
            352 -667 rlineto
            286 32 hlineto
            -59 17 -45 36 -119 223 -211 404 rcurveline
            176 44 123 127 174 vvcurveto
            -223 -14 rmoveto
            -214 -141 -111 -229 -7 vhcurveto
            -135 -5 0 698 107 -3 rlineto
            288 -10 110 -149 -199 vvcurveto
            return
          </CharString>
          <CharString index="219">
            rmoveto
            314 -191 179 -212 -142 -126 -73 -110 -53 vhcurveto
            176 vlineto
            -316 -36 0 -30 59 -18 rlineto
            -105 callsubr
            -1140 -58 callsubr
            -66 callsubr
            421 vlineto
            -73 45 91 -50 119 hhcurveto
            259 208 204 306 hvcurveto
            -205 -24 rmoveto
            -256 -123 -172 -184 -94 -68 callgsubr
          </CharString>
          <CharString index="220">
            1321 414 155 rmoveto
            577 vlineto
            144 -2 458 -730 rlineto
            308 32 hlineto
            -70 21 -51 43 -134 214 rrcurveto
            -359 580 276 298 136 147 74 52 105 23 rlinecurve
            34 -401 -34 vlineto
            141 -14 -1 -51 -108 -128 rrcurveto
            -374 -443 -144 -2 rlineto
            517 -15 callsubr
            -107 callsubr
            -35 callsubr
            return
          </CharString>
          <CharString index="221">
            275 32 hlineto
            -64 13 -46 38 -76 125 rrcurveto
            -265 437 118 111 139 129 45 26 102 22 rlinecurve
            35 -363 -35 vlineto
            112 -19 9 -32 -79 -88 rrcurveto
            -214 -240 -119 -4 0 930 29 callsubr
            -105 callsubr
            -22 callsubr
            -95 callsubr
            378 vlineto
            120 -2 rlineto
            return
          </CharString>
          <CharString index="222">
            35 vlineto
            -57 -56 -84 -41 -112 hhcurveto
            -205 -162 168 282 238 128 165 205 80 64 -24 -40 42 hvcurveto
            1 -6 -7 1 -6 hhcurveto
            -54 -45 -45 -59 -58 45 -46 59 57 47 45 62 114 -107 105 -213 -286 -210 -214 -287 return
          </CharString>
          <CharString index="223">
            rmoveto
            160 124 107 154 156 -121 101 -159 -161 -123 -107 -154 -156 121 -101 159 hvcurveto
            3 35 rmoveto
            -79 -51 88 140 136 45 84 81 79 52 -89 -140 -135 -46 -84 -81 hvcurveto
            endchar
          </CharString>
          <CharString index="224">
            14 -12 17 65 vvcurveto
            644 vlineto
            71 42 70 47 105 hhcurveto
            138 75 -83 -168 hvcurveto
            -511 vlineto
            -65 -12 -17 -102 -14 vhcurveto
            -34 425 34 vlineto
            -102 14 -12 17 65 vvcurveto
            155 callsubr
            endchar
          </CharString>
          <CharString index="225">
            rmoveto
            -103 114 -61 128 128 114 61 104 101 -113 63 -129 -129 -113 -62 -103 vhcurveto
            144 hmoveto
            74 39 53 59 59 39 -53 -73 -77 -39 -50 -59 -59 -39 51 75 vhcurveto
            endchar
          </CharString>
          <CharString index="226">
            158 88 120 121 16 -1 15 -3 15 hvcurveto
            -36 -5 hlineto
            -95 -84 -65 -122 -122 -84 65 95 vhcurveto
            5 -36 vlineto
            -3 -15 -1 -15 -16 vvcurveto
            -121 88 -120 158 vhcurveto
            endchar
          </CharString>
          <CharString index="227">
            rmoveto
            -100 104 -60 115 115 104 60 100 99 -103 62 -116 -116 -103 -62 -99 vhcurveto
            131 hmoveto
            72 35 52 53 52 36 -53 -71 -74 -36 -50 -52 -53 -35 50 74 vhcurveto
            return
          </CharString>
          <CharString index="228">
            hlineto
            2 13 2 21 19 vvcurveto
            234 -146 164 -250 -278 -176 -212 -289 vhcurveto
            453 453 rmoveto
            140 68 -135 -180 -16 -1 -15 -1 -13 hvcurveto
            return
          </CharString>
          <CharString index="229">
            rmoveto
            -62 hlineto
            -196 -108 0 -24 115 32 rlineto
            -522 vlineto
            -55 -20 -14 -88 -11 vhcurveto
            -26 360 26 vlineto
            -87 11 -21 14 55 vvcurveto
            return
          </CharString>
          <CharString index="230">
            1381 rmoveto
            487 98 -487 hlineto
            244 -375 rmoveto
            50 39 37 50 48 -39 39 -50 -50 -39 -39 -48 -50 39 -37 50 hvcurveto
            return
          </CharString>
          <CharString index="231">
            rmoveto
            129 24 121 114 153 vvcurveto
            105 -52 73 -81 -82 -45 -74 -85 vhcurveto
            78 -6 59 -51 -73 vvcurveto
            -75 -60 -55 -79 -20 vhcurveto
            return
          </CharString>
          <CharString index="232">
            rmoveto
            -76 -268 43 0 212 264 rlineto
            5 vlineto
            132 -1 rmoveto
            -135 -268 44 0 281 264 rlineto
            5 vlineto
            return
          </CharString>
          <CharString index="233">
            1411 rmoveto
            486 -88 0 38 -486 182 rlineto
            -1 -405 rmoveto
            487 97 -487 hlineto
            return
          </CharString>
          <CharString index="234">
            1411 rmoveto
            132 vlineto
            -486 -182 rlineto
            -38 vlineto
            -1 -185 rmoveto
            487 97 -487 hlineto
            return
          </CharString>
          <CharString index="235">
            hhcurveto
            55 36 -26 -42 -40 -31 -28 -58 -19 hvcurveto
            30 -24 rlineto
            113 26 63 38 75 vvcurveto
            75 return
          </CharString>
          <CharString index="236">
            rmoveto
            207 145 206 -145 44 0 -201 268 -96 0 -201 -268 rlineto
            return
          </CharString>
          <CharString index="237">
            1789 rmoveto
            500 83 -500 hlineto
            250 -310 rmoveto
            137 callsubr
            return
          </CharString>
          <CharString index="238">
            695 vlineto
            69 14 17 107 16 vhcurveto
            35 -432 -35 vlineto
            101 -13 13 -17 -65 vvcurveto
            return
          </CharString>
          <CharString index="239">
            408 245 45 -245 216 vlineto
            -197 -22 rlineto
            -194 -121 vlineto
            endchar
          </CharString>
          <CharString index="240">
            50 39 38 50 48 -39 39 -50 -50 -39 -39 -48 -50 39 -38 50 hvcurveto
            243 return
          </CharString>
          <CharString index="241">
            435 rmoveto
            267 -212 150 -363 vhcurveto
            -173 417 hlineto
            97 return
          </CharString>
          <CharString index="242">
            65 53 50 63 64 -53 51 -65 -65 -53 -51 -64 -63 53 -50 65 hvcurveto
            return
          </CharString>
          <CharString index="243">
            49 1219 rmoveto
            121 -1083 hlineto
            -69 -17 -17 -104 -16 vhcurveto
            -34 return
          </CharString>
          <CharString index="244">
            48 37 32 42 41 -37 33 -48 -48 -37 -33 -41 -42 37 -32 48 hvcurveto
            return
          </CharString>
          <CharString index="245">
            0 1364 103 -3 420 -13 239 -259 -1 -402 rlinecurve
            return
          </CharString>
          <CharString index="246">
            -228 87 -184 131 -128 vhcurveto
            -128 -148 36 -32 128 148 rlineto
            -111 130 167 -60 169 hhcurveto
            433 284 333 411 228 -86 184 -132 127 hvcurveto
            128 148 -36 32 -128 -147 rlineto
            110 -130 -167 60 -169 -76 callgsubr
            162 129 -89 -146 84 vhcurveto
            -755 -870 rlineto
            -56 117 -31 147 163 vvcurveto
            953 -29 rmoveto
            -385 -135 -294 -331 -163 -129 89 146 -84 vhcurveto
            755 871 rlineto
            56 -118 31 -146 -163 vvcurveto
            endchar
          </CharString>
          <CharString index="247">
            rmoveto
            147 91 90 194 103 hvcurveto
            -205 47 60 -73 116 hhcurveto
            72 65 38 50 38 hvcurveto
            31 vlineto
            -13 -19 -24 -7 -23 hhcurveto
            -70 -46 53 264 -74 hvcurveto
            -20 69 235 495 rlineto
            -201 hlineto
            -24 -113 -30 -121 -34 -117 rrcurveto
            245 -68 -95 123 -196 hhcurveto
            -246 -158 -219 -282 -329 175 -173 179 hvcurveto
            -140 517 rmoveto
            267 74 170 125 115 54 -116 -249 49 vhcurveto
            46 -222 rlineto
            -185 -67 -72 -99 -111 hhcurveto
            -131 -82 173 261 hvcurveto
            endchar
          </CharString>
          <CharString index="248">
            rmoveto
            276 220 206 297 148 -52 123 -86 87 hvcurveto
            87 97 -35 31 -86 -97 rlineto
            70 -85 -111 39 -121 hhcurveto
            -276 -220 -205 -297 -150 53 -124 87 -87 hvcurveto
            -83 -93 34 -30 83 93 rlineto
            -69 85 110 -39 120 hhcurveto
            -278 511 rmoveto
            268 105 176 173 98 81 -63 -106 50 vhcurveto
            -468 -525 rlineto
            -25 70 -14 85 95 vvcurveto
            285 -464 rmoveto
            -98 -79 62 105 -50 hvcurveto
            468 524 rlineto
            25 -69 13 -83 -94 vvcurveto
            -268 -105 -177 -174 vhcurveto
            endchar
          </CharString>
          <CharString index="249">
            rmoveto
            -273 128 -155 180 165 110 141 158 32 vhcurveto
            24 -168 103 -132 182 1 rrcurveto
            205 153 206 316 281 -117 200 -134 -79 -50 -65 -98 26 hvcurveto
            156 -40 121 -170 -221 vvcurveto
            -189 -76 -114 -130 -140 -81 130 284 vhcurveto
            191 -188 -190 vlineto
            -300 -68 -115 -122 -123 -70 123 231 242 75 189 139 88 vhcurveto
            -21 22 rlineto
            -245 -73 -155 -228 -272 vvcurveto
            endchar
          </CharString>
          <CharString index="250">
            hmoveto
            583 274 hlineto
            -248 75 -121 234 271 vvcurveto
            318 152 243 313 316 168 -247 -331 -268 -120 -225 -249 -70 vhcurveto
            -274 583 vlineto
            45 340 rlineto
            -27 hlineto
            -72 -169 -132 -34 -354 -1 rrcurveto
            113 vlineto
            350 52 203 240 312 vvcurveto
            349 -299 263 -408 -413 -284 -275 -352 -306 216 -230 337 -53 vhcurveto
            -113 vlineto
            -339 1 -142 32 -76 171 rrcurveto
            -28 hlineto
            return
          </CharString>
          <CharString index="251">
            rmoveto
            213 149 89 119 77 hvcurveto
            34 vlineto
            -66 -69 -125 -50 -145 hhcurveto
            -159 -106 62 106 107 98 66 207 hvcurveto
            94 hlineto
            -24 142 rlineto
            -50 hlineto
            -234 -102 62 114 99 82 71 165 100 86 -18 -44 54 hvcurveto
            -50 -48 -39 -61 -49 39 -51 63 54 48 43 61 117 -116 89 -245 -278 -124 -121 -149 -143 129 -104 212 -2 hvcurveto
            -238 -3 -127 -86 -137 vvcurveto
            -156 145 -102 225 vhcurveto
            endchar
          </CharString>
          <CharString index="252">
            -460 352 -281 365 -2 vhcurveto
            -94 -82 -60 -97 -99 vvcurveto
            -107 80 -72 105 77 67 39 57 26 vhcurveto
            34 vlineto
            -20 -17 -29 -16 -34 hhcurveto
            -73 -55 82 105 69 17 65 28 43 hvcurveto
            413 17 269 326 400 vvcurveto
            -103 callsubr
            -100 callsubr
            333 299 187 -305 -402 -385 -135 -294 -331 -301 -186 306 402 vhcurveto
            endchar
          </CharString>
          <CharString index="253">
            rmoveto
            344 vlineto
            121 -2 304 -472 rlineto
            275 32 hlineto
            -64 14 -40 40 -93 142 rrcurveto
            -257 387 116 127 138 145 45 25 100 21 rlinecurve
            35 -355 -35 vlineto
            113 -19 7 -34 -82 -99 rrcurveto
            -211 -264 -117 -2 rlineto
            323 vlineto
            -29 callgsubr
            -95 callsubr
            endchar
          </CharString>
          <CharString index="254">
            hmoveto
            221 vlineto
            151 7 118 63 59 86 -1 35 rcurveline
            -57 -55 -85 -41 -111 hhcurveto
            -206 -162 168 282 239 128 167 201 77 63 -22 -38 42 hvcurveto
            1 -3 -4 0 -4 hhcurveto
            -54 -45 -44 -59 -58 46 -46 59 56 47 46 60 119 -116 94 -201 1 hvcurveto
            220 -36 -221 vlineto
            -268 -16 -194 -209 -276 vvcurveto
            -295 196 -203 266 -4 vhcurveto
            -220 vlineto
            endchar
          </CharString>
          <CharString index="255">
            rmoveto
            -74 58 -58 82 150 87 123 261 131 vhcurveto
            436 867 69 138 29 22 120 20 rlinecurve
            34 -395 -34 vlineto
            169 -21 11 -17 -67 -142 rrcurveto
            -322 -674 -352 686 -67 132 3 20 167 16 rlinecurve
            34 -546 -34 vlineto
            112 -18 29 -21 60 -113 rrcurveto
            481 -915 -75 -149 -57 -96 -68 -46 rlinecurve
            7 16 5 18 20 vvcurveto
            73 -58 60 -70 -72 -57 -57 -71 vhcurveto
            endchar
          </CharString>
          <CharString index="256">
            226 -119 168 -178 64 hvcurveto
            -8 38 44 -5 47 hhcurveto
            161 105 58 101 84 -62 74 -83 37 hvcurveto
            -35 hlineto
            19 -24 17 -52 -51 vvcurveto
            -112 -84 -76 -150 vhcurveto
            -69 -58 15 -96 hhcurveto
            -267 -221 -208 -295 -304 209 -196 283 hvcurveto
            7 48 rmoveto
            -176 -107 189 272 271 97 175 179 175 107 -188 -273 -271 -97 -175 -178 hvcurveto
            return
          </CharString>
          <CharString index="257">
            189 147 114 73 105 56 vhcurveto
            -169 vlineto
            322 37 0 30 -63 17 rlineto
            -57 17 -7 12 54 vvcurveto
            794 vlineto
            -2 14 16 -1 17 hhcurveto
            98 76 47 90 83 -64 80 -84 35 hvcurveto
            -34 hlineto
            19 -24 16 -51 -51 vvcurveto
            -113 -81 -77 -214 -18 vhcurveto
            -99 -9 0 -29 59 -18 rlineto
            57 -18 7 -11 -53 vvcurveto
            -619 vlineto
            -70 -42 -75 -48 -101 hhcurveto
            -144 -80 84 170 hvcurveto
            return
          </CharString>
          <CharString index="258">
            204 hlineto
            79 -6 681 -1 vvcurveto
            78 29 72 48 104 hhcurveto
            148 74 -85 -252 -252 -5 -327 -10 -429 hvcurveto
            205 hlineto
            -5 1061 rlineto
            296 -1 -141 88 -184 hhcurveto
            -151 -106 -78 -106 -35 hvcurveto
            115 -9 -69 62 -100 hhcurveto
            -74 -61 -31 -40 -36 hvcurveto
            -35 vlineto
            10 13 20 7 26 hhcurveto
            73 42 -46 -139 -1 hvcurveto
            -102 -11 -451 -5 -151 vhcurveto
            endchar
          </CharString>
          <CharString index="259">
            rmoveto
            768 vlineto
            255 -11 0 67 -255 -11 rlineto
            255 vlineto
            161 49 65 85 19 18 -3 -6 16 vhcurveto
            -39 -9 -29 -33 -44 vvcurveto
            -51 39 -39 51 49 40 39 51 81 -67 64 -130 -170 -128 -116 -222 vhcurveto
            -183 vlineto
            -121 -42 rlineto
            -24 121 -769 -58 callsubr
            451 34 vlineto
            -119 16 -14 17 77 vvcurveto
            endchar
          </CharString>
          <CharString index="260">
            hvcurveto
            -3 -2 0 -3 hhcurveto
            -54 -45 -44 -58 -59 45 -46 59 57 46 46 60 119 -119 95 -204 hvcurveto
            -4 220 -36 -221 hlineto
            -270 -19 -192 -208 -276 vvcurveto
            -294 196 -202 266 -4 vhcurveto
            -220 vlineto
            -256 763 rmoveto
            207 97 153 159 38 vhcurveto
            -829 vlineto
            -150 50 -106 153 228 vvcurveto
            endchar
          </CharString>
          <CharString index="261">
            520 vlineto
            327 305 126 285 hvcurveto
            -292 672 rmoveto
            -192 -114 -105 -205 -1 vhcurveto
            -183 -1 0 620 120 -4 rlineto
            279 -8 103 -130 -179 vvcurveto
            60 -686 rmoveto
            -223 -161 -122 -281 -8 vhcurveto
            -120 -4 0 704 183 -2 rlineto
            244 -2 135 -137 -206 vvcurveto
            return
          </CharString>
          <CharString index="262">
            565 vlineto
            32 -3 29 -5 26 vhcurveto
            68 43 75 42 102 hhcurveto
            139 77 -83 -168 hvcurveto
            -511 vlineto
            -65 -12 -16 -102 -15 vhcurveto
            -34 432 34 vlineto
            -104 16 -17 17 69 vvcurveto
            544 vlineto
            206 -131 99 -188 -143 -123 -72 -106 -56 vhcurveto
            116 -39 -111 62 -148 hhcurveto
            -148 -112 -73 -104 -55 hvcurveto
            return
          </CharString>
          <CharString index="263">
            11 -44 -55 -183 rrcurveto
            -273 -917 -281 958 -47 160 11 29 125 17 rlinecurve
            34 -494 -34 vlineto
            137 -22 19 -28 -51 -172 rrcurveto
            -276 -940 -292 958 -43 144 16 44 131 16 rlinecurve
            34 -521 -34 vlineto
            94 -13 44 -30 53 -161 rrcurveto
            return
          </CharString>
          <CharString index="264">
            rmoveto
            263 213 195 308 310 -192 190 -280 -268 -213 -194 -309 -309 193 -191 284 hvcurveto
            4 48 rmoveto
            -169 -97 199 266 268 91 174 171 164 98 -198 -266 -268 -91 -175 -167 hvcurveto
            endchar
          </CharString>
          <CharString index="265">
            -53 vvcurveto
            -117 -86 -88 -188 vhcurveto
            -88 -34 hlineto
            148 -20 17 -20 -121 vvcurveto
            5 -708 rlineto
            -305 2 -168 -181 -262 hhcurveto
            -249 -179 153 343 hvcurveto
            726 vlineto
            93 19 20 146 20 vhcurveto
            34 -531 -34 vlineto
            130 -20 20 -20 -93 vvcurveto
            return
          </CharString>
          <CharString index="266">
            313 -779 59 0 296 743 61 151 27 27 84 15 rlinecurve
            35 -322 -35 vlineto
            119 -17 20 -28 -49 -138 rrcurveto
            -191 -526 -198 533 -48 132 19 27 120 17 rlinecurve
            35 -468 -35 vlineto
            84 -16 27 -24 47 -117 rrcurveto
            return
          </CharString>
          <CharString index="267">
            69 17 18 104 15 vhcurveto
            35 -431 -35 vlineto
            101 -14 12 -16 -65 vvcurveto
            -795 -399 795 vlineto
            65 12 17 101 13 vhcurveto
            35 -424 -35 vlineto
            101 -13 12 -17 -65 vvcurveto
            -795 -399 795 vlineto
            65 12 16 101 14 vhcurveto
            35 -431 33 callsubr
            return
          </CharString>
          <CharString index="268">
            rmoveto
            85 66 60 171 -6 hvcurveto
            -38 hlineto
            -92 -6 -24 -27 -38 hhcurveto
            -28 -22 11 24 -34 hvcurveto
            -29 20 rlineto
            34 -48 -39 22 -50 hhcurveto
            -85 -65 -60 -171 5 hvcurveto
            39 hlineto
            92 5 25 28 38 hhcurveto
            28 22 -12 -24 34 hvcurveto
            29 -20 rlineto
            -34 48 39 -22 49 hhcurveto
            return
          </CharString>
          <CharString index="269">
            509 vlineto
            292 473 122 199 40 37 96 17 rlinecurve
            34 -372 -34 vlineto
            142 -19 8 -45 -101 -181 rrcurveto
            -248 -441 -283 479 -86 145 21 44 124 18 rlinecurve
            34 -521 -34 vlineto
            91 -14 35 -26 102 -167 rrcurveto
            return
          </CharString>
          <CharString index="270">
            5 hlineto
            -91 -89 -46 -94 -96 vvcurveto
            -114 85 -67 96 84 67 39 50 29 vhcurveto
            -1 34 rlineto
            -19 -16 -29 -12 -33 hhcurveto
            -76 -61 91 127 54 11 54 21 44 hvcurveto
            256 21 198 200 281 vvcurveto
            -99 callsubr
            vhcurveto
            -84 callgsubr
          </CharString>
          <CharString index="271">
            -182 rlineto
            -38 vlineto
            264 -274 rmoveto
            121 79 45 69 69 -79 45 -121 hvcurveto
            -43 hlineto
            -119 -81 -45 -69 -69 81 -45 119 hvcurveto
            40 39 rmoveto
            -37 hlineto
            -44 -26 32 43 43 26 32 44 hvcurveto
            37 hlineto
            46 24 -32 -43 -43 -24 -32 -46 hvcurveto
            return
          </CharString>
          <CharString index="272">
            445 -1212 87 0 430 1164 73 199 32 -97 callgsubr
            15 -45 -62 -182 rrcurveto
            -319 -929 -343 971 -51 144 23 45 129 16 rlinecurve
            34 -523 -34 vlineto
            101 -16 35 -36 56 -152 rrcurveto
            return
          </CharString>
          <CharString index="273">
            1294 1208 411 rmoveto
            228 -199 124 -290 14 vhcurveto
            224 17 197 106 201 vvcurveto
            226 -217 117 -347 vhcurveto
            -520 -65 callsubr
            -107 callsubr
            154 callsubr
            return
          </CharString>
          <CharString index="274">
            270 -207 rmoveto
            115 75 33 52 52 -75 33 -115 hvcurveto
            -41 hlineto
            -113 -77 -33 -52 -52 77 -33 113 hvcurveto
            38 29 rmoveto
            -35 hlineto
            -42 -25 23 33 33 25 23 42 hvcurveto
            35 hlineto
            44 23 -23 -33 -33 -24 -23 -43 hvcurveto
            return
          </CharString>
          <CharString index="275">
            1940 rmoveto
            -77 -51 -33 -29 -29 hvcurveto
            -27 vlineto
            12 20 37 11 42 hhcurveto
            56 37 -22 -36 -35 -31 -24 -60 -16 hvcurveto
            31 -20 rlineto
            116 23 64 31 64 vvcurveto
            64 -74 37 -81 vhcurveto
            7 -396 0 callsubr
            return
          </CharString>
          <CharString index="276">
            537 vlineto
            241 -6 122 -4 24 -45 27 -150 rlinecurve
            30 450 -30 hlineto
            -30 -152 -23 -43 -120 -4 rrcurveto
            -241 -6 0 652 195 -8 270 -12 86 -55 52 -226 rlinecurve
            32 hlineto
            endchar
          </CharString>
          <CharString index="277">
            -472 rmoveto
            85 73 34 56 34 hvcurveto
            34 vlineto
            -25 -21 -36 -13 -40 hhcurveto
            -59 -53 45 86 91 52 88 148 104 hvcurveto
            -37 -1 rlineto
            -229 -119 -86 -110 -112 vvcurveto
            -97 74 -61 95 vhcurveto
            endchar
          </CharString>
          <CharString index="278">
            -168 8 -629 rcurveline
            -314 4 -171 -188 -260 hhcurveto
            -249 -179 158 352 hvcurveto
            718 vlineto
            88 19 21 123 18 vhcurveto
            34 -494 -34 vlineto
            115 -18 21 -18 -85 vvcurveto
            return
          </CharString>
          <CharString index="279">
            rmoveto
            -150 -84 -117 -119 -15 1 -16 2 -14 hvcurveto
            35 5 hlineto
            94 80 66 116 117 80 -66 -94 vhcurveto
            -5 35 vlineto
            2 14 1 16 15 vvcurveto
            119 -86 117 -149 vhcurveto
            return
          </CharString>
          <CharString index="280">
            -170 -94 -133 -134 -17 1 -18 3 -16 hvcurveto
            39 5 hlineto
            105 90 73 131 131 90 -73 -105 vhcurveto
            -5 39 vlineto
            3 16 1 18 17 vvcurveto
            134 -94 133 -170 vhcurveto
            return
          </CharString>
          <CharString index="281">
            170 94 133 135 17 -1 17 -3 17 hvcurveto
            -39 -6 hlineto
            -105 -90 -73 -131 -131 -90 73 105 vhcurveto
            6 -39 vlineto
            -3 -17 -1 -17 -17 vvcurveto
            -135 94 -133 170 vhcurveto
            return
          </CharString>
          <CharString index="282">
            149 85 117 119 15 -1 16 -2 14 hvcurveto
            -35 -5 hlineto
            -94 -80 -66 -117 -116 -80 66 94 vhcurveto
            5 -35 vlineto
            -2 -14 -1 -16 -15 vvcurveto
            -119 86 -117 149 vhcurveto
            return
          </CharString>
          <CharString index="283">
            474 vlineto
            251 170 118 181 hvcurveto
            -464 239 rmoveto
            179 -5 84 -96 -151 vvcurveto
            -148 -106 -88 -157 -6 vhcurveto
            -113 -4 rlineto
            499 vlineto
            endchar
          </CharString>
          <CharString index="284">
            159 89 75 -30 -46 45 vhcurveto
            1 -5 -4 0 -5 hhcurveto
            -53 -45 -42 -59 -58 45 -44 58 56 47 45 59 136 -143 94 -196 -215 -225 -117 -275 return
          </CharString>
          <CharString index="285">
            rmoveto
            -85 -62 -43 -53 -30 hvcurveto
            -28 vlineto
            24 25 40 17 47 hhcurveto
            62 38 -30 -44 -50 -42 -44 -73 -48 hvcurveto
            37 hlineto
            145 60 50 56 67 vvcurveto
            68 -62 48 -90 vhcurveto
            return
          </CharString>
          <CharString index="286">
            361 191 227 342 5 vhcurveto
            8 639 3 167 19 39 123 16 rlinecurve
            35 -372 -34 vlineto
            134 -19 19 -37 3 171 callsubr
            return
          </CharString>
          <CharString index="287">
            34 vlineto
            -58 -55 -85 -41 -113 hhcurveto
            -223 107 callsubr
            646 121 callsubr
            -459 -4 rlineto
            232 5 94 131 154 hhcurveto
            endchar
          </CharString>
        <CharString name=".notdef">
          2048 167 -494 rmoveto
          75 2444 -75 hlineto
          410 -2444 rmoveto
          75 2444 -75 hlineto
          409 -91 callgsubr
          410 -91 callgsubr
          410 -91 callgsubr
          endchar
        </CharString>
        <CharString name=".null">
          0 endchar
        </CharString>
        <CharString name="A">
          4 callsubr
          -94 callsubr
        </CharString>
        <CharString name="AE">
          1904 1769 1444 109 callsubr
        </CharString>
        <CharString name="AEacute">
          1904 1188 -92 callsubr
          624 -94 109 callsubr
        </CharString>
        <CharString name="AEmacron">
          1904 1000 -49 callsubr
          769 -261 109 callsubr
        </CharString>
        <CharString name="Aacute">
          1342 620 -92 callsubr
          584 -1300 -97 callsubr
          -94 callsubr
        </CharString>
        <CharString name="Abreve">
          1342 667 -7 callsubr
          494 -1350 -97 callsubr
          -94 callsubr
        </CharString>
        <CharString name="Abreveacute">
          1342 916 60 callsubr
          250 -215 0 callsubr
          494 -1306 -97 callsubr
          -94 callsubr
        </CharString>
        <CharString name="Abrevecyrillic">
          1342 667 1590 rmoveto
          72 callsubr
          494 -1352 -97 callsubr
          -94 callsubr
        </CharString>
        <CharString name="Abrevedotbelow">
          1342 667 -7 callsubr
          494 -1350 -97 callsubr
          47 callsubr
          -192 -762 -96 callsubr
        </CharString>
        <CharString name="Abrevegrave">
          1342 418 54 callsubr
          249 -402 0 callsubr
          494 -1306 -97 callsubr
          -94 callsubr
        </CharString>
        <CharString name="Abrevehookabove">
          1342 660 168 callsubr
          494 -1306 -97 callsubr
          -94 callsubr
        </CharString>
        <CharString name="Abrevetilde">
          1342 777 1786 -64 callsubr
          -110 -242 0 callsubr
          494 -1306 -97 callsubr
          -94 callsubr
        </CharString>
        <CharString name="Acaron">
          1342 883 -70 callsubr
          237 -1585 -97 callsubr
          -94 callsubr
        </CharString>
        <CharString name="Acircumflex">
          1342 469 -69 callsubr
          733 -1299 -97 callsubr
          -94 callsubr
        </CharString>
        <CharString name="Acircumflexacute">
          1342 916 1812 21 callsubr
          1 -233 rmoveto
          -52 callgsubr
          743 -1298 -97 callsubr
          -94 callsubr
        </CharString>
        <CharString name="Acircumflexdotbelow">
          1342 469 -69 callsubr
          733 -1299 -97 callsubr
          47 callsubr
          -192 -762 -96 callsubr
        </CharString>
        <CharString name="Acircumflexgrave">
          1342 418 86 callsubr
          743 -1298 -97 callsubr
          -94 callsubr
        </CharString>
        <CharString name="Acircumflexhookabove">
          1342 879 71 callsubr
          743 -1298 -97 callsubr
          -94 callsubr
        </CharString>
        <CharString name="Acircumflextilde">
          1342 777 1764 -64 callsubr
          82 callsubr
          743 -1298 -97 callsubr
          -94 callsubr
        </CharString>
        <CharString name="Acyrillic">
          4 callsubr
          -94 callsubr
        </CharString>
        <CharString name="Adblgrave">
          1342 468 27 callsubr
          306 -1298 -97 callsubr
          -94 callsubr
        </CharString>
        <CharString name="Adieresis">
          1342 515 -60 callsubr
          341 -1340 -97 callsubr
          -94 callsubr
        </CharString>
        <CharString name="Adieresismacron">
          1342 417 57 callsubr
          111 -328 rmoveto
          -52 callsubr
          -39 callsubr
          355 -1328 -97 callsubr
          -94 callsubr
        </CharString>
        <CharString name="Adotaccent">
          1342 667 -82 callsubr
          494 -1341 -97 callsubr
          -94 callsubr
        </CharString>
        <CharString name="Adotbelow">
          4 callsubr
          47 callsubr
          -192 -762 -96 callsubr
        </CharString>
        <CharString name="Adotmacron">
          1342 417 130 callsubr
          494 -1324 -97 callsubr
          -94 callsubr
        </CharString>
        <CharString name="Agrave">
          1342 732 -36 callsubr
          732 -1562 -97 callsubr
          -94 callsubr
        </CharString>
        <CharString name="Ahookabove">
          1342 688 -6 callsubr
          473 -1611 -97 callsubr
          -94 callsubr
        </CharString>
        <CharString name="Ainvertedbreve">
          1342 666 25 callsubr
          495 -1631 -97 callsubr
          -94 callsubr
        </CharString>
        <CharString name="Alphagreek">
          4 callsubr
          -94 callsubr
        </CharString>
        <CharString name="Alphatonosgreek">
          4 callsubr
          524 34 vlineto
          -102 16 -35 36 -56 152 rrcurveto
          -911 854 94 callsubr
          157 -526 rmoveto
          221 643 227 -643 rlineto
          endchar
        </CharString>
        <CharString name="Amacron">
          1342 432 -49 callsubr
          729 -1467 -97 callsubr
          -94 callsubr
        </CharString>
        <CharString name="Aogonek">
          4 callsubr
          257 vlineto
          -100 -86 -63 -103 -108 vvcurveto
          -109 79 -72 105 78 66 39 57 26 vhcurveto
          34 vlineto
          -40 callgsubr
          234 34 hlineto
          -102 16 -35 36 -56 152 rrcurveto
          -793 328 rmoveto
          221 643 227 -643 rlineto
          endchar
        </CharString>
        <CharString name="Aring">
          1342 448 1721 120 callsubr
          582 -1483 -97 callsubr
          -94 callsubr
        </CharString>
        <CharString name="Aringacute">
          1342 916 1817 -92 callgsubr
          167 callsubr
          477 -1326 -97 callsubr
          -94 callsubr
        </CharString>
        <CharString name="Aringbelow">
          4 callsubr
          47 callsubr
          -434 -855 118 callsubr
        </CharString>
        <CharString name="Atilde">
          1342 772 -32 callsubr
          389 -1322 -97 callsubr
          -94 callsubr
        </CharString>
        <CharString name="B">
          1294 1208 411 76 callsubr
        </CharString>
        <CharString name="Bdotaccent">
          1294 646 -82 callsubr
          562 -1168 76 callsubr
        </CharString>
        <CharString name="Bdotbelow">
          166 callsubr
          -329 -593 -96 callsubr
        </CharString>
        <CharString name="Becyrillic">
          1228 1162 415 rmoveto
          243 -202 157 -380 vhcurveto
          -166 589 hlineto
          195 -6 280 -9 74 -43 51 -231 rlinecurve
          31 hlineto
          -15 329 rlineto
          -974 -65 callsubr
          -107 callsubr
          525 vlineto
          363 218 160 255 hvcurveto
          -233 -6 rmoveto
          -217 -121 -138 -270 -9 vhcurveto
          -124 -4 0 732 124 -4 rlineto
          267 -9 124 -139 -212 vvcurveto
          endchar
        </CharString>
        <CharString name="Betagreek">
          1294 1208 411 76 callsubr
        </CharString>
        <CharString name="Blinebelow">
          166 callsubr
          -572 -739 -75 callsubr
        </CharString>
        <CharString name="C">
          1393 95 733 2 callsubr
          -14 callsubr
        </CharString>
        <CharString name="Cacute">
          1393 783 -92 callsubr
          -645 -805 2 callsubr
          -14 callsubr
        </CharString>
        <CharString name="Ccaron">
          1393 1046 -70 callsubr
          -992 -1090 2 callsubr
          -14 callsubr
        </CharString>
        <CharString name="Ccedilla">
          1393 95 733 rmoveto
          -457 311 -289 411 -8 vhcurveto
          -120 -158 -62 callsubr
          20 callsubr
          -23 callsubr
          -47 callsubr
          70 96 rlineto
          197 6 165 54 66 49 14 327 rcurveline
          -96 callgsubr
          -14 callsubr
        </CharString>
        <CharString name="Ccedillaacute">
          1393 783 -92 callsubr
          -645 -805 rmoveto
          -457 311 -289 411 -8 vhcurveto
          -120 -158 -62 callsubr
          20 callsubr
          -23 callsubr
          -47 callsubr
          70 96 rlineto
          197 6 165 54 66 49 14 327 rcurveline
          -96 callgsubr
          -14 callsubr
        </CharString>
        <CharString name="Ccircumflex">
          1393 632 -69 callsubr
          -496 -804 2 callsubr
          -14 callsubr
        </CharString>
        <CharString name="Cdotaccent">
          1393 830 -82 callsubr
          -735 -846 2 callsubr
          -14 callsubr
        </CharString>
        <CharString name="Checyrillic">
          1470 1272 -48 callsubr
          -494 -34 vlineto
          117 -18 19 -18 -85 vvcurveto
          -593 vlineto
          -40 -88 -99 -19 -117 hhcurveto
          -249 -110 136 261 hvcurveto
          255 vlineto
          85 19 18 116 18 vhcurveto
          34 -487 -34 vlineto
          117 -18 19 -18 -85 vvcurveto
          -252 vlineto
          -312 201 -148 318 146 123 30 47 91 vhcurveto
          -479 -34 callsubr
          511 104 callsubr
        </CharString>
        <CharString name="Chigreek">
          1334 285 291 34 callsubr
        </CharString>
        <CharString name="D">
          1501 22 callsubr
          endchar
        </CharString>
        <CharString name="Dbar">
          1501 56 717 rmoveto
          142 -556 hlineto
          -88 -19 -21 -123 -18 vhcurveto
          -34 493 vlineto
          466 400 259 488 450 -356 247 -511 hvcurveto
          -492 -65 callsubr
          -520 -142 vlineto
          1119 -36 97 callsubr
          rlineto
          677 312 46 -312 641 vlineto
          103 -3 420 -13 239 -259 -1 -402 rlinecurve
          endchar
        </CharString>
        <CharString name="Dcaron">
          1501 935 -70 callsubr
          439 -1076 75 callsubr
          endchar
        </CharString>
        <CharString name="Dcircumflexbelow">
          1501 22 callsubr
          -676 -1173 -63 callsubr
        </CharString>
        <CharString name="Dcommaaccent">
          1501 22 callsubr
          -473 -1177 -73 callsubr
        </CharString>
        <CharString name="Ddotaccent">
          1501 719 -82 callsubr
          696 -832 75 callsubr
          endchar
        </CharString>
        <CharString name="Ddotbelow">
          1501 22 callsubr
          -468 -923 -96 callsubr
        </CharString>
        <CharString name="Decyrillic">
          1433 1386 45 rmoveto
          -187 1224 hlineto
          97 19 27 134 17 vhcurveto
          34 -1141 -34 vlineto
          137 -19 47 -38 -4 -149 rrcurveto
          -7 -195 -12 -420 -53 -349 -141 -195 rlinecurve
          -152 hlineto
          -8 -375 rlineto
          39 hlineto
          283 70 74 47 241 hhcurveto
          531 hlineto
          247 66 -57 -273 67 hvcurveto
          40 hlineto
          -410 375 rmoveto
          -736 hlineto
          131 194 53 333 11 437 11 390 rcurveline
          530 hlineto
          endchar
        </CharString>
        <CharString name="Deltagreek">
          1256 49 hmoveto
          1158 103 hlineto
          -536 1348 -86 0 -536 -1347 rlineto
          73 41 rmoveto
          436 1078 409 -1078 rlineto
          endchar
        </CharString>
        <CharString name="Djecyrillic">
          1660 -26 callsubr
          -85 callgsubr
          527 vlineto
          41 68 92 23 105 hhcurveto
          222 140 -164 -289 3 hvcurveto
          2 -277 -113 -252 -198 -125 19 -29 rcurveline
          302 139 204 253 308 vvcurveto
          335 -219 166 -283 -152 -115 -35 -51 -77 vhcurveto
          663 -33 callgsubr
        </CharString>
        <CharString name="Dlinebelow">
          1501 22 callsubr
          -711 -1069 -75 callsubr
        </CharString>
        <CharString name="Dzecyrillic">
          1137 558 -21 64 callsubr
          endchar
        </CharString>
        <CharString name="Dzhecyrillic">
          1540 1342 1283 rmoveto
          62 callsubr
          -494 -34 vlineto
          115 -18 21 -18 -85 vvcurveto
          -1245 -712 1245 vlineto
          85 21 18 115 18 vhcurveto
          34 -494 23 callsubr
          -107 callsubr
          512 vlineto
          115 24 -38 -289 44 hvcurveto
          39 hlineto
          289 44 24 38 114 hhcurveto
          512 34 hlineto
          -122 18 -20 21 88 vvcurveto
          endchar
        </CharString>
        <CharString name="E">
          1201 1071 1444 -85 callsubr
        </CharString>
        <CharString name="Eacute">
          1201 570 -92 callsubr
          544 -94 -85 callsubr
        </CharString>
        <CharString name="Ebreve">
          1201 617 -7 callsubr
          454 -144 -85 callsubr
        </CharString>
        <CharString name="Ecaron">
          1201 833 -70 callsubr
          197 -379 -85 callsubr
        </CharString>
        <CharString name="Ecedilla">
          1201 585 8 callsubr
          -47 callsubr
          79 109 rlineto
          8 474 vlineto
          -30 callsubr
          -16 341 rlineto
          -25 callsubr
          548 vlineto
          -136 -179 -62 callsubr
          20 callsubr
          endchar
        </CharString>
        <CharString name="Ecedillabreve">
          1201 617 -7 callsubr
          -32 -2038 rmoveto
          -23 callsubr
          -47 callsubr
          79 109 rlineto
          8 474 vlineto
          -30 callsubr
          -16 341 rlineto
          -25 callsubr
          548 vlineto
          -136 -179 -62 callsubr
          20 callsubr
          endchar
        </CharString>
        <CharString name="Ecircumflex">
          1201 419 -69 callsubr
          693 -93 -85 callsubr
        </CharString>
        <CharString name="Ecircumflexacute">
          1201 866 1812 21 callsubr
          1 -233 rmoveto
          -52 callgsubr
          703 -92 -85 callsubr
        </CharString>
        <CharString name="Ecircumflexbelow">
          1201 1071 1444 rmoveto
          -25 callsubr
          1063 vlineto
          -30 callsubr
          -681 -1549 -63 callsubr
        </CharString>
        <CharString name="Ecircumflexdotbelow">
          1201 419 -69 callsubr
          693 -93 rmoveto
          -25 callsubr
          1063 vlineto
          -30 callsubr
          -473 -1299 -96 callsubr
        </CharString>
        <CharString name="Ecircumflexgrave">
          1201 368 86 callsubr
          703 -92 -85 callsubr
        </CharString>
        <CharString name="Ecircumflexhookabove">
          1201 829 71 callsubr
          703 -92 -85 callsubr
        </CharString>
        <CharString name="Ecircumflextilde">
          1201 727 1764 -64 callsubr
          82 callsubr
          703 -92 -85 callsubr
        </CharString>
        <CharString name="Ecyrillic">
          1412 95 733 2 callsubr
          -317 -178 316 372 -10 hvcurveto
          721 -11 0 66 -722 -12 rlineto
          397 2 188 258 310 hhcurveto
          -82 callgsubr
        </CharString>
        <CharString name="Edblgrave">
          1201 418 27 callsubr
          266 -92 -85 callsubr
        </CharString>
        <CharString name="Edieresis">
          1201 465 -60 callsubr
          301 -134 -85 callsubr
        </CharString>
        <CharString name="Edotaccent">
          1201 617 -82 callsubr
          454 -135 -85 callsubr
        </CharString>
        <CharString name="Edotbelow">
          1201 1071 1444 rmoveto
          -25 callsubr
          1063 vlineto
          -30 callsubr
          -473 -1299 -96 callsubr
        </CharString>
        <CharString name="Efcyrillic">
          1817 75 718 rmoveto
          -310 302 -186 429 -11 vhcurveto
          -57 vlineto
          -97 -20 -27 -134 -17 vhcurveto
          -34 513 7 callsubr
          56 vlineto
          451 11 279 189 312 vvcurveto
          306 -278 194 -452 11 vhcurveto
          57 -38 callgsubr
          20 -27 -97 vvcurveto
          -57 vlineto
          -475 -11 -256 -197 -307 vvcurveto
          233 9 rmoveto
          233 130 212 368 14 vhcurveto
          -929 vlineto
          -341 16 -157 215 239 vvcurveto
          1202 -8 rmoveto
          -234 -140 -213 -358 -15 vhcurveto
          929 vlineto
          350 -15 148 -215 -237 vvcurveto
          endchar
        </CharString>
        <CharString name="Egrave">
          1201 682 -36 callsubr
          692 -356 -85 callsubr
        </CharString>
        <CharString name="Ehookabove">
          1201 638 -6 callsubr
          433 -405 -85 callsubr
        </CharString>
        <CharString name="Einvertedbreve">
          1201 616 25 callsubr
          455 -425 -85 callsubr
        </CharString>
        <CharString name="Elcyrillic">
          1432 -62 callgsubr
          524 -1238 hlineto
          -88 -21 -21 -121 -18 vhcurveto
          -34 500 34 vlineto
          -121 18 -21 21 88 vvcurveto
          1122 vlineto
          89 21 20 121 18 vhcurveto
          34 -1125 -34 vlineto
          139 -18 44 -46 -3 -131 rrcurveto
          -7 -208 -12 -493 -37 -298 -59 callgsubr
          endchar
        </CharString>
        <CharString name="Emacron">
          1201 382 -49 callsubr
          689 -261 -85 callsubr
        </CharString>
        <CharString name="Emacronacute">
          1201 866 60 callsubr
          -164 vmoveto
          500 83 -500 hlineto
          704 -234 -85 callsubr
        </CharString>
        <CharString name="Emacrongrave">
          1201 368 54 callsubr
          -89 callgsubr
          704 -234 -85 callsubr
        </CharString>
        <CharString name="Emcyrillic">
          1769 430 1444 36 callsubr
        </CharString>
        <CharString name="Encyrillic">
          5 callsubr
          -57 callsubr
          -44 callsubr
          -31 callsubr
        </CharString>
        <CharString name="Eogonek">
          1201 967 -478 rmoveto
          78 66 39 57 27 hvcurveto
          -1 34 rlineto
          -40 callgsubr
          140 hlineto
          -30 callsubr
          -16 341 rlineto
          -25 callsubr
          890 vlineto
          -100 -86 -63 -103 -108 vvcurveto
          -109 79 -72 105 vhcurveto
          endchar
        </CharString>
        <CharString name="Epsilongreek">
          1201 1071 1444 -85 callsubr
        </CharString>
        <CharString name="Epsilontonosgreek">
          1462 1332 1444 rmoveto
          -25 callsubr
          1063 vlineto
          -30 callsubr
          -1308 -11 94 callsubr
          endchar
        </CharString>
        <CharString name="Ercyrillic">
          1242 1156 1031 37 callsubr
        </CharString>
        <CharString name="Ereversedcyrillic">
          1422 121 98 rmoveto
          -62 80 186 -57 185 hhcurveto
          433 321 290 472 436 -310 288 -436 -217 -155 -52 -61 -76 hvcurveto
          -14 -273 rlineto
          32 hlineto
          219 53 142 118 228 hhcurveto
          313 194 -254 -401 6 hvcurveto
          -714 11 0 -66 714 10 rlineto
          -374 -8 -186 -314 -327 hhcurveto
          -197 -172 89 254 -59 hvcurveto
          -32 hlineto
          endchar
        </CharString>
        <CharString name="Escyrillic">
          1393 95 733 2 callsubr
          -14 callsubr
        </CharString>
        <CharString name="Etagreek">
          5 callsubr
          -57 callsubr
          -44 callsubr
          -31 callsubr
        </CharString>
        <CharString name="Etatonosgreek">
          1811 675 155 18 callsubr
          -57 callsubr
          -44 callsubr
          -35 callsubr
          -635 937 94 callsubr
          endchar
        </CharString>
        <CharString name="Etilde">
          1201 722 -32 callsubr
          349 -116 -85 callsubr
        </CharString>
        <CharString name="Etildebelow">
          1201 1071 1444 rmoveto
          -25 callsubr
          1063 vlineto
          -30 callsubr
          -371 -1497 rmoveto
          -1 callsubr
        </CharString>
        <CharString name="F">
          1091 1034 1444 rmoveto
          -978 -65 callsubr
          -107 callsubr
          -9 callsubr
          169 callsubr
        </CharString>
        <CharString name="Fdotaccent">
          1091 591 -82 callsubr
          443 -135 rmoveto
          -978 -65 callsubr
          -107 callsubr
          -9 callsubr
          169 callsubr
        </CharString>
        <CharString name="G">
          1512 95 733 -2 callsubr
        </CharString>
        <CharString name="Gacute">
          1512 780 -92 callsubr
          -642 -805 -2 callsubr
        </CharString>
        <CharString name="Gammagreek">
          1084 1025 1444 rmoveto
          -969 -65 callsubr
          -107 callsubr
          -9 callsubr
          1229 vlineto
          191 -6 276 -9 77 -54 49 -220 rlinecurve
          32 hlineto
          endchar
        </CharString>
        <CharString name="Gbreve">
          1512 827 -7 callsubr
          -732 -855 -2 callsubr
        </CharString>
        <CharString name="Gcaron">
          1512 1043 -70 callsubr
          -989 -1090 -2 callsubr
        </CharString>
        <CharString name="Gcircumflex">
          1512 629 -69 callsubr
          -493 -804 -2 callsubr
        </CharString>
        <CharString name="Gcommaaccent">
          1512 95 733 rmoveto
          -461 319 -293 426 195 198 60 89 113 vhcurveto
          379 vlineto
          94 19 20 121 12 vhcurveto
          34 -488 -34 vlineto
          130 -13 18 -19 -94 vvcurveto
          -394 vlineto
          -51 -61 -107 -33 -128 hhcurveto
          -333 -180 337 387 401 189 261 315 238 147 -136 -242 54 hvcurveto
          31 hlineto
          -13 326 rlineto
          54 -75 -149 48 -242 hhcurveto
          -406 -331 -260 -472 hvcurveto
          737 -1183 -73 callsubr
        </CharString>
        <CharString name="Gdotaccent">
          1512 827 -82 callsubr
          -732 -846 -2 callsubr
        </CharString>
        <CharString name="Geacutecyrillic">
          1085 558 -92 callsubr
          510 -94 rmoveto
          -969 -65 callsubr
          -107 callsubr
          -9 callsubr
          -55 callgsubr
        </CharString>
        <CharString name="Gecyrillic">
          1085 1025 1444 rmoveto
          -969 -65 callsubr
          -107 callsubr
          -9 callsubr
          -55 callgsubr
        </CharString>
        <CharString name="Germandbls">
          1385 414 hmoveto
          1404 vlineto
          221 -8 rlineto
          288 -10 116 -135 -167 vvcurveto
          -148 -84 -103 -172 -31 vhcurveto
          -122 vlineto
          220 -60 116 -138 -181 vvcurveto
          -172 -98 -102 -134 -143 -112 119 221 -41 vhcurveto
          -32 -318 hlineto
          -34 52 123 -36 152 hhcurveto
          211 202 142 245 223 -125 172 -220 66 hvcurveto
          161 17 128 102 167 vvcurveto
          202 -177 129 -378 vhcurveto
          -632 -34 hlineto
          123 -18 19 -20 -89 vvcurveto
          -1122 vlineto
          -89 -19 -20 -123 -18 vhcurveto
          -34 vlineto
          endchar
        </CharString>
        <CharString name="Geupturncyrillic">
          1055 997 1400 rmoveto
          13 372 rlineto
          -39 hlineto
          -280 -77 -62 -48 -301 hhcurveto
          -475 -65 callsubr
          -107 callsubr
          -9 callsubr
          1225 vlineto
          endchar
        </CharString>
        <CharString name="Gmacron">
          1512 592 -49 callsubr
          -497 -972 -2 callsubr
        </CharString>
        <CharString name="H">
          5 callsubr
          -57 callsubr
          -44 callsubr
          -31 callsubr
        </CharString>
        <CharString name="Hacyrillic">
          1334 285 291 34 callsubr
        </CharString>
        <CharString name="Hardsigncyrillic">
          1487 1402 134 callsubr
          20 27 134 17 vhcurveto
          34 -752 vlineto
          -14 -329 rlineto
          32 hlineto
          43 227 67 49 232 10 22 1 rcurveline
          -1227 -34 callsubr
          549 vlineto
          366 202 183 252 hvcurveto
          -232 -9 rmoveto
          -222 -116 -150 -262 -9 vhcurveto
          -138 -4 0 769 131 -2 rlineto
          257 -5 128 -147 -230 vvcurveto
          endchar
        </CharString>
        <CharString name="Hbar">
          5 callsubr
          902 142 47 -142 173 -56 callgsubr
          -179 -722 179 -15 callsubr
          -173 -142 -47 142 -902 24 callsubr
          -35 callsubr
          607 vmoveto
          301 722 -301 vlineto
          endchar
        </CharString>
        <CharString name="Hbrevebelow">
          5 callsubr
          -57 callsubr
          -44 callsubr
          -35 callsubr
          362 -587 rmoveto
          119 callsubr
        </CharString>
        <CharString name="Hcaron">
          1550 992 -70 callsubr
          -619 -1668 18 callsubr
          -57 callsubr
          -44 callsubr
          -31 callsubr
        </CharString>
        <CharString name="Hcedilla">
          5 callsubr
          -57 callsubr
          -44 callsubr
          232 -87 callgsubr
          -23 callsubr
          -88 callgsubr
          216 34 hlineto
          -115 18 -21 18 85 vvcurveto
          endchar
        </CharString>
        <CharString name="Hcircumflex">
          1550 578 -69 callsubr
          -123 -1382 18 callsubr
          -57 callsubr
          -44 callsubr
          -31 callsubr
        </CharString>
        <CharString name="Hdieresis">
          1550 624 -60 callsubr
          -515 -1423 18 callsubr
          -57 callsubr
          -44 callsubr
          -31 callsubr
        </CharString>
        <CharString name="Hdotaccent">
          1550 776 -82 callsubr
          -362 -1424 18 callsubr
          -57 callsubr
          -44 callsubr
          -31 callsubr
        </CharString>
        <CharString name="Hdotbelow">
          5 callsubr
          -57 callsubr
          -44 callsubr
          -35 callsubr
          362 -351 -96 callsubr
        </CharString>
        <CharString name="I">
          612 414 -48 callsubr
          -89 callsubr
          -107 callsubr
          -74 callsubr
        </CharString>
        <CharString name="IAcyrillic">
          1313 155 1043 rmoveto
          -204 144 -109 197 -41 vhcurveto
          -236 -382 -134 -216 -38 -41 -64 -18 rlinecurve
          -32 270 vlineto
          402 660 rlineto
          194 -505 hlineto
          -82 -19 -19 -117 -20 vhcurveto
          -34 494 34 vlineto
          -121 21 -21 20 86 vvcurveto
          1120 vlineto
          90 21 21 121 16 vhcurveto
          36 -528 vlineto
          -352 -213 -142 -259 hvcurveto
          224 7 rmoveto
          218 128 124 260 8 vhcurveto
          123 4 0 -705 -135 3 rlineto
          -227 4 -149 130 214 vvcurveto
          endchar
        </CharString>
        <CharString name="IJ">
          1225 414 -48 callsubr
          -89 callsubr
          -107 callsubr
          6 callsubr
          612 83 -18 callsubr
        </CharString>
        <CharString name="IJacute">
          1225 259 -92 callsubr
          655 -1 92 callsubr
          -414 -1377 -76 callsubr
          -89 callsubr
          -107 callsubr
          6 callsubr
          612 83 -18 callsubr
        </CharString>
        <CharString name="IUcyrillic">
          2204 414 155 rmoveto
          562 267 vlineto
          -459 351 -279 364 431 281 330 414 1 vhcurveto
          464 1 -354 278 -363 hhcurveto
          -418 -276 -308 -395 -17 hvcurveto
          -268 527 hlineto
          84 21 19 115 17 vhcurveto
          35 -494 23 callsubr
          -107 callsubr
          -35 callsubr
          991 -126 rmoveto
          -300 -186 303 405 388 133 290 332 299 189 -302 -405 -1 hvcurveto
          -388 -1 -134 -291 -331 hhcurveto
          endchar
        </CharString>
        <CharString name="Iacute">
          612 259 -92 callsubr
          198 -1377 -76 callsubr
          -89 callsubr
          -107 callsubr
          -74 callsubr
        </CharString>
        <CharString name="Ibreve">
          612 306 -7 callsubr
          108 -1427 -76 callsubr
          -89 callsubr
          -107 callsubr
          -74 callsubr
        </CharString>
        <CharString name="Icaron">
          612 522 -70 callsubr
          -149 -1662 -76 callsubr
          -89 callsubr
          -107 callsubr
          -74 callsubr
        </CharString>
        <CharString name="Icircumflex">
          612 108 -69 callsubr
          347 -1376 -76 callsubr
          -89 callsubr
          -107 callsubr
          -74 callsubr
        </CharString>
        <CharString name="Icyrillic">
          612 414 -48 callsubr
          -89 callsubr
          -107 callsubr
          -74 callsubr
        </CharString>
        <CharString name="Idblgrave">
          612 107 27 callsubr
          -80 -1375 -76 callsubr
          -89 callsubr
          -107 callsubr
          -74 callsubr
        </CharString>
        <CharString name="Idieresis">
          612 154 -60 callsubr
          -45 -1417 -76 callsubr
          -89 callsubr
          -107 callsubr
          -74 callsubr
        </CharString>
        <CharString name="Idieresisacute">
          612 555 26 callsubr
          111 -192 rmoveto
          -52 callsubr
          -39 callsubr
          -31 -1405 -76 callsubr
          -89 callsubr
          -107 callsubr
          -74 callsubr
        </CharString>
        <CharString name="Idotaccent">
          612 306 -82 callsubr
          108 -1418 -76 callsubr
          -89 callsubr
          -107 callsubr
          -74 callsubr
        </CharString>
        <CharString name="Idotbelow">
          612 414 -48 callsubr
          -89 callsubr
          -107 callsubr
          6 callsubr
          -109 -357 -96 callsubr
        </CharString>
        <CharString name="Iecyrillic">
          1201 1071 1444 -85 callsubr
        </CharString>
        <CharString name="Igrave">
          612 371 -36 callsubr
          346 -1639 -76 callsubr
          -89 callsubr
          -107 callsubr
          -74 callsubr
        </CharString>
        <CharString name="Ihookabove">
          612 327 -6 callsubr
          87 -1688 -76 callsubr
          -89 callsubr
          -107 callsubr
          -74 callsubr
        </CharString>
        <CharString name="Iicyrillic">
          1570 414 155 rmoveto
          63 vlineto
          742 939 rlineto
          -1002 105 callsubr
          -94 callgsubr
          -57 callsubr
          -62 vlineto
          -742 -939 rlineto
          1001 -15 callsubr
          -107 callsubr
          -31 callsubr
        </CharString>
        <CharString name="Iinvertedbreve">
          612 305 25 callsubr
          109 -1708 -76 callsubr
          -89 callsubr
          -107 callsubr
          -74 callsubr
        </CharString>
        <CharString name="Iishortcyrillic">
          1570 784 1590 rmoveto
          72 callsubr
          -370 -1435 rmoveto
          63 vlineto
          742 939 rlineto
          -1002 105 callsubr
          -94 callgsubr
          -57 callsubr
          -62 vlineto
          -742 -939 rlineto
          1001 -15 callsubr
          -107 callsubr
          -31 callsubr
        </CharString>
        <CharString name="Imacron">
          612 71 -49 callsubr
          343 -1544 -76 callsubr
          -89 callsubr
          -107 callsubr
          -74 callsubr
        </CharString>
        <CharString name="Iocyrillic">
          1201 465 -60 callsubr
          301 -134 -85 callsubr
        </CharString>
        <CharString name="Iogonek">
          612 414 -48 callsubr
          -89 callsubr
          -107 callsubr
          249 vlineto
          -99 -86 -64 -103 -108 vvcurveto
          -109 80 -72 104 78 67 39 57 26 vhcurveto
          -1 34 rlineto
          -20 -16 -29 -16 -34 hhcurveto
          -73 -55 85 109 76 19 70 30 44 hvcurveto
          218 34 hlineto
          -122 18 -20 21 88 vvcurveto
          endchar
        </CharString>
        <CharString name="Iotadieresisgreek">
          612 154 -60 callsubr
          -45 -1417 -76 callsubr
          -89 callsubr
          -107 callsubr
          -74 callsubr
        </CharString>
        <CharString name="Iotagreek">
          612 414 -48 callsubr
          -89 callsubr
          -107 callsubr
          -74 callsubr
        </CharString>
        <CharString name="Iotatonosgreek">
          873 675 -48 callsubr
          -89 callsubr
          -107 callsubr
          6 callsubr
          -635 931 94 callsubr
          endchar
        </CharString>
        <CharString name="Itilde">
          612 411 -32 callsubr
          3 -1399 -76 callsubr
          -89 callsubr
          -107 callsubr
          -74 callsubr
        </CharString>
        <CharString name="Itildebelow">
          612 414 -48 callsubr
          -89 callsubr
          -107 callsubr
          6 callsubr
          -7 -555 rmoveto
          -1 callsubr
        </CharString>
        <CharString name="J">
          612 414 244 -18 callsubr
        </CharString>
        <CharString name="Jacute">
          612 259 -92 callsubr
          198 -1294 -18 callsubr
        </CharString>
        <CharString name="Jcircumflex">
          612 108 -69 callsubr
          347 -1293 -18 callsubr
        </CharString>
        <CharString name="Jecyrillic">
          612 414 244 -18 callsubr
        </CharString>
        <CharString name="K">
          1321 414 155 11 callsubr
        </CharString>
        <CharString name="Kaacutecyrillic">
          1321 637 -92 callsubr
          -180 -1383 11 callsubr
        </CharString>
        <CharString name="Kacute">
          1321 637 -92 callsubr
          -180 -1383 11 callsubr
        </CharString>
        <CharString name="Kacyrillic">
          1321 414 155 11 callsubr
        </CharString>
        <CharString name="Kappagreek">
          1321 414 155 11 callsubr
        </CharString>
        <CharString name="Kcaron">
          1321 900 -70 callsubr
          -527 -1668 11 callsubr
        </CharString>
        <CharString name="Kcommaaccent">
          113 callsubr
          293 -605 -73 callsubr
        </CharString>
        <CharString name="Kdotbelow">
          113 callsubr
          298 -351 -96 callsubr
        </CharString>
        <CharString name="Klinebelow">
          113 callsubr
          55 -497 -75 callsubr
        </CharString>
        <CharString name="L">
          1106 -10 callsubr
          endchar
        </CharString>
        <CharString name="Lacute">
          1106 261 -92 callsubr
          829 -1538 rmoveto
          55 callsubr
          88 callsubr
          endchar
        </CharString>
        <CharString name="Lambdagreek">
          1317 1136 239 rmoveto
          -434 1211 -87 0 -423 -1201 -61 -172 -41 -29 -98 -14 rlinecurve
          -34 379 34 vlineto
          -146 19 -17 42 53 161 rrcurveto
          317 951 334 -982 47 -138 -37 -37 -120 -16 rlinecurve
          -34 524 34 vlineto
          -90 13 -42 30 -58 162 rrcurveto
          endchar
        </CharString>
        <CharString name="Lcaron">
          1106 786 1106 98 callsubr
          293 -1106 rmoveto
          55 callsubr
          88 callsubr
          endchar
        </CharString>
        <CharString name="Lcircumflexbelow">
          1106 -10 callsubr
          320 -446 -63 callsubr
        </CharString>
        <CharString name="Lcommaaccent">
          1106 -10 callsubr
          523 -450 -73 callsubr
        </CharString>
        <CharString name="Ldot">
          1106 -10 callsubr
          735 701 rmoveto
          -45 callgsubr
          endchar
        </CharString>
        <CharString name="Ldotbelow">
          1106 -10 callsubr
          528 -196 -96 callsubr
        </CharString>
        <CharString name="Ldotbelowmacron">
          1106 73 -49 callsubr
          974 -1705 rmoveto
          55 callsubr
          88 callsubr
          528 -196 -96 callsubr
        </CharString>
        <CharString name="Ljecyrillic">
          2002 -62 callgsubr
          459 -1238 hlineto
          -88 -21 -21 -121 -18 vhcurveto
          -34 538 vlineto
          365 203 183 252 267 -213 150 -362 hvcurveto
          -173 417 hlineto
          97 19 27 134 17 vhcurveto
          34 -1071 -34 vlineto
          139 -19 44 -45 -3 -131 rrcurveto
          -7 -208 -12 -492 -37 -299 -59 callgsubr
          1674 314 rmoveto
          -222 -115 -150 -263 -9 vhcurveto
          -137 -4 0 769 130 -2 rlineto
          258 -5 127 -147 -230 vvcurveto
          endchar
        </CharString>
        <CharString name="Llinebelow">
          1106 -10 callsubr
          285 -342 -75 callsubr
        </CharString>
        <CharString name="Lslash">
          1106 56 633 rmoveto
          142 43 rlineto
          -515 24 callsubr
          991 vlineto
          55 callsubr
          rrcurveto
          -186 -7 0 701 358 107 0 50 -358 -107 rlineto
          478 vlineto
          97 93 callsubr
          -557 vlineto
          -142 -43 rlineto
          endchar
        </CharString>
        <CharString name="M">
          1769 430 1444 36 callsubr
        </CharString>
        <CharString name="Macute">
          1769 836 -92 callsubr
          -363 -94 36 callsubr
        </CharString>
        <CharString name="Mdotaccent">
          1769 883 -82 callsubr
          -453 -135 36 callsubr
        </CharString>
        <CharString name="Mdotbelow">
          1769 430 1444 rmoveto
          -346 -34 hlineto
          106 -19 29 -35 -4 -108 rrcurveto
          -39 -1000 -8 -159 -20 -38 -129 -17 rlinecurve
          -34 373 34 vlineto
          -130 18 -17 37 3 161 rrcurveto
          15 1040 508 -1290 79 0 73 211 412 1075 36 -1127 3 -90 -22 -20 -117 -15 rlinecurve
          -34 492 34 vlineto
          -121 16 -16 20 -3 91 rrcurveto
          -38 1122 -2 87 21 23 115 17 rlinecurve
          34 -357 vlineto
          -432 -1207 rlineto
          -83 -433 -96 callsubr
        </CharString>
        <CharString name="Mugreek">
          1769 430 1444 36 callsubr
        </CharString>
        <CharString name="N">
          1445 -24 callsubr
          endchar
        </CharString>
        <CharString name="Nacute">
          1445 702 -92 callsubr
          -281 -94 12 callsubr
          endchar
        </CharString>
        <CharString name="Ncaron">
          1445 965 -70 callsubr
          -628 -379 12 callsubr
          endchar
        </CharString>
        <CharString name="Ncircumflexbelow">
          1445 -24 callsubr
          -706 -724 -63 callsubr
        </CharString>
        <CharString name="Ncommaaccent">
          1445 -24 callsubr
          -503 -728 -73 callsubr
        </CharString>
        <CharString name="Ndotaccent">
          1445 749 -82 callsubr
          -371 -135 12 callsubr
          endchar
        </CharString>
        <CharString name="Ndotbelow">
          1445 -24 callsubr
          -498 -474 -96 callsubr
        </CharString>
        <CharString name="Ngrave">
          1445 814 -36 callsubr
          -133 -356 12 callsubr
          endchar
        </CharString>
        <CharString name="Njecyrillic">
          2065 414 155 rmoveto
          607 602 -607 vlineto
          -85 -20 -18 -115 -18 vhcurveto
          -34 531 vlineto
          366 202 173 239 253 -212 142 -363 hvcurveto
          -173 462 hlineto
          97 20 27 134 17 vhcurveto
          34 -505 -35 vlineto
          115 -17 20 -19 -84 vvcurveto
          -481 -602 481 -15 callsubr
          -107 callsubr
          -35 callsubr
          1334 248 rmoveto
          -209 -116 -141 -262 -8 vhcurveto
          -138 -4 0 724 131 -3 rlineto
          257 -4 128 -139 -216 vvcurveto
          endchar
        </CharString>
        <CharString name="Nlinebelow">
          1445 -24 callsubr
          -741 -620 -75 callsubr
        </CharString>
        <CharString name="Ntilde">
          1445 854 -32 callsubr
          -476 -116 12 callsubr
          endchar
        </CharString>
        <CharString name="Nugreek">
          1445 -24 callsubr
          endchar
        </CharString>
        <CharString name="O">
          9 callsubr
          53 callsubr
          -103 callsubr
          -100 callsubr
          -98 callsubr
        </CharString>
        <CharString name="OE">
          2014 95 717 rmoveto
          -429 330 -310 401 vhcurveto
          148 99 22 142 hhcurveto
          717 hlineto
          18 380 rlineto
          -31 hlineto
          -54 -265 -81 -52 -301 -13 rrcurveto
          -253 -10 0 680 281 -6 123 -4 25 -46 27 -149 rlinecurve
          30 450 -30 hlineto
          -30 -151 -24 -44 -121 -4 rrcurveto
          -281 -6 0 644 215 -8 281 -12 89 -56 54 -225 rlinecurve
          31 hlineto
          -15 341 rlineto
          -670 hlineto
          -182 -54 22 -152 hhcurveto
          -441 -291 -331 -418 hvcurveto
          241 12 rmoveto
          393 161 295 338 68 63 -10 -25 48 vhcurveto
          -1327 vlineto
          -19 -50 -63 -9 -64 hhcurveto
          -311 -190 297 405 hvcurveto
          endchar
        </CharString>
        <CharString name="Oacute">
          1627 761 -92 callsubr
          -623 -816 -101 callsubr
          -103 callsubr
          -100 callsubr
          -98 callsubr
        </CharString>
        <CharString name="Obreve">
          1627 808 -7 callsubr
          -713 -866 -101 callsubr
          -103 callsubr
          -100 callsubr
          -98 callsubr
        </CharString>
        <CharString name="Ocaron">
          1627 1024 -70 callsubr
          -970 -1101 -101 callsubr
          -103 callsubr
          -100 callsubr
          -98 callsubr
        </CharString>
        <CharString name="Ocircumflex">
          1627 610 -69 callsubr
          -474 -815 -101 callsubr
          -103 callsubr
          -100 callsubr
          -98 callsubr
        </CharString>
        <CharString name="Ocircumflexacute">
          1627 1057 1812 21 callsubr
          1 -233 rmoveto
          -52 callgsubr
          -464 -814 -101 callsubr
          -103 callsubr
          -100 callsubr
          -98 callsubr
        </CharString>
        <CharString name="Ocircumflexdotbelow">
          1627 610 -69 callsubr
          -474 -815 -101 callsubr
          -103 callsubr
          -100 callsubr
          333 84 callsubr
          484 -933 -96 callsubr
        </CharString>
        <CharString name="Ocircumflexgrave">
          1627 559 86 callsubr
          -464 -814 -101 callsubr
          -103 callsubr
          -100 callsubr
          -98 callsubr
        </CharString>
        <CharString name="Ocircumflexhookabove">
          1627 1020 71 callsubr
          -464 -814 -101 callsubr
          -103 callsubr
          -100 callsubr
          -98 callsubr
        </CharString>
        <CharString name="Ocircumflextilde">
          1627 918 1764 -64 callsubr
          82 callsubr
          -464 -814 -101 callsubr
          -103 callsubr
          -100 callsubr
          -98 callsubr
        </CharString>
        <CharString name="Ocyrillic">
          9 callsubr
          53 callsubr
          -103 callsubr
          -100 callsubr
          -98 callsubr
        </CharString>
        <CharString name="Odblgrave">
          1627 609 27 callsubr
          -901 -814 -101 callsubr
          -103 callsubr
          -100 callsubr
          -98 callsubr
        </CharString>
        <CharString name="Odieresis">
          1627 656 -60 callsubr
          -866 -856 -101 callsubr
          -103 callsubr
          -100 callsubr
          -98 callsubr
        </CharString>
        <CharString name="Odieresismacron">
          1627 558 57 callsubr
          111 -328 rmoveto
          -52 callsubr
          -39 callsubr
          -852 -844 -101 callsubr
          -103 callsubr
          -100 callsubr
          -98 callsubr
        </CharString>
        <CharString name="Odotaccent">
          1627 808 -82 callsubr
          -713 -857 -101 callsubr
          -103 callsubr
          -100 callsubr
          -98 callsubr
        </CharString>
        <CharString name="Odotaccentmacron">
          1627 558 130 callsubr
          -713 -840 -101 callsubr
          -103 callsubr
          -100 callsubr
          -98 callsubr
        </CharString>
        <CharString name="Odotbelow">
          9 callsubr
          53 callsubr
          -103 callsubr
          -100 callsubr
          333 84 callsubr
          484 -933 -96 callsubr
        </CharString>
        <CharString name="Ograve">
          1627 873 -36 callsubr
          -475 -1078 -101 callsubr
          -103 callsubr
          -100 callsubr
          -98 callsubr
        </CharString>
        <CharString name="Ohookabove">
          1627 829 -6 callsubr
          -734 -1127 -101 callsubr
          -103 callsubr
          -100 callsubr
          -98 callsubr
        </CharString>
        <CharString name="Ohorn">
          1637 95 722 -101 callsubr
          39 callsubr
        </CharString>
        <CharString name="Ohornacute">
          1637 760 -92 callsubr
          -622 -816 -101 callsubr
          39 callsubr
        </CharString>
        <CharString name="Ohorndotbelow">
          1637 95 722 -101 callsubr
          336 -190 244 -252 106 vhcurveto
          -6 30 35 -4 35 hhcurveto
          173 120 58 119 88 -64 76 -85 37 hvcurveto
          -35 hlineto
          20 -24 16 -53 -52 vvcurveto
          -122 -83 -85 -165 vhcurveto
          -80 -85 24 -110 -76 callgsubr
          84 callsubr
          482 -933 -96 callsubr
        </CharString>
        <CharString name="Ohorngrave">
          1637 872 -36 callsubr
          -474 -1078 -101 callsubr
          39 callsubr
        </CharString>
        <CharString name="Ohornhookabove">
          1637 828 -6 callsubr
          -733 -1127 -101 callsubr
          39 callsubr
        </CharString>
        <CharString name="Ohorntilde">
          1637 912 -32 callsubr
          -817 -838 -101 callsubr
          39 callsubr
        </CharString>
        <CharString name="Ohungarumlaut">
          1627 716 1805 125 callsubr
          -1122 -1084 -101 callsubr
          -103 callsubr
          -100 callsubr
          -98 callsubr
        </CharString>
        <CharString name="Oinvertedbreve">
          1627 807 25 callsubr
          -712 -1147 -101 callsubr
          -103 callsubr
          -100 callsubr
          -98 callsubr
        </CharString>
        <CharString name="Omacron">
          1627 573 -49 callsubr
          -478 -983 -101 callsubr
          -103 callsubr
          -100 callsubr
          -98 callsubr
        </CharString>
        <CharString name="Omacronacute">
          1627 1057 60 callsubr
          -164 vmoveto
          500 83 -500 hlineto
          -463 -956 -101 callsubr
          -103 callsubr
          -100 callsubr
          -98 callsubr
        </CharString>
        <CharString name="Omacrongrave">
          1627 559 54 callsubr
          -89 callgsubr
          -463 -956 -101 callsubr
          -103 callsubr
          -100 callsubr
          -98 callsubr
        </CharString>
        <CharString name="Omegagreek">
          1566 86 143 callsubr
          endchar
        </CharString>
        <CharString name="Omegatonosgreek">
          1654 174 143 callsubr
          -88 752 94 callsubr
          endchar
        </CharString>
        <CharString name="Omicrongreek">
          9 callsubr
          53 callsubr
          -103 callsubr
          -100 callsubr
          -98 callsubr
        </CharString>
        <CharString name="Omicrontonosgreek">
          1673 141 722 -101 callsubr
          -103 callsubr
          -101 370 94 callsubr
          382 -355 rmoveto
          385 134 293 -98 callsubr
        </CharString>
        <CharString name="Oogonek">
          9 callsubr
          145 callsubr
        </CharString>
        <CharString name="Oogonekmacron">
          1627 573 -49 callsubr
          -478 -983 rmoveto
          145 callsubr
        </CharString>
        <CharString name="Oslash">
          9 callsubr
          139 callsubr
        </CharString>
        <CharString name="Oslashacute">
          1627 761 -92 callsubr
          -623 -816 rmoveto
          139 callsubr
        </CharString>
        <CharString name="Otilde">
          1627 913 -32 callsubr
          -818 -838 -101 callsubr
          -103 callsubr
          -100 callsubr
          -98 callsubr
        </CharString>
        <CharString name="Otildeacute">
          1627 1057 26 callsubr
          360 -188 -64 callsubr
          -823 -848 -101 callsubr
          -103 callsubr
          -100 callsubr
          -98 callsubr
        </CharString>
        <CharString name="Otildedieresis">
          1627 669 1782 rmoveto
          3 callsubr
          288 hmoveto
          3 callsubr
          -29 -212 -64 callsubr
          -823 -848 -101 callsubr
          -103 callsubr
          -100 callsubr
          -98 callsubr
        </CharString>
        <CharString name="Otildemacron">
          1627 558 57 callsubr
          360 -324 -64 callsubr
          -823 -848 -101 callsubr
          -103 callsubr
          -100 callsubr
          -98 callsubr
        </CharString>
        <CharString name="P">
          1242 1156 1031 37 callsubr
        </CharString>
        <CharString name="Pacute">
          1242 524 -92 callsubr
          675 -507 37 callsubr
        </CharString>
        <CharString name="Pdotaccent">
          1242 571 -82 callsubr
          585 -548 37 callsubr
        </CharString>
        <CharString name="Pecyrillic">
          1540 1342 -48 callsubr
          -1428 23 callsubr
          -107 callsubr
          -35 callsubr
          1245 712 -1245 vlineto
          -85 -21 -18 -115 -18 vhcurveto
          -34 494 104 callsubr
        </CharString>
        <CharString name="Phigreek">
          1782 85 720 rmoveto
          -330 295 -181 408 -13 vhcurveto
          -21 -34 callsubr
          513 7 callsubr
          21 vlineto
          377 13 325 166 351 vvcurveto
          329 -296 181 -406 13 vhcurveto
          20 -38 callgsubr
          19 -27 -97 vvcurveto
          -20 vlineto
          -377 -12 -326 -165 -352 vvcurveto
          1388 -3 rmoveto
          -282 -190 -176 -288 -18 vhcurveto
          964 vlineto
          309 -17 169 -183 -288 vvcurveto
          -1164 12 rmoveto
          282 189 177 290 17 vhcurveto
          -964 vlineto
          -310 17 -169 182 289 vvcurveto
          endchar
        </CharString>
        <CharString name="Pigreek">
          1509 1311 -48 callsubr
          -1397 23 callsubr
          -107 callsubr
          -35 callsubr
          1245 681 -1245 vlineto
          -85 -20 -18 -116 -18 vhcurveto
          -34 494 104 callsubr
        </CharString>
        <CharString name="Psigreek">
          1723 965 175 rmoveto
          365 vlineto
          303 7 184 115 44 318 rrcurveto
          35 258 17 126 37 32 88 4 rlinecurve
          34 vlineto
          5 -29 -49 5 -47 hhcurveto
          -131 -68 -53 -171 -25 hvcurveto
          -38 -269 -36 -250 -91 -108 -194 -10 rlinecurve
          706 vlineto
          84 20 19 115 17 vhcurveto
          35 -478 -35 vlineto
          115 -17 21 -19 -84 vvcurveto
          -706 vlineto
          -193 10 -92 107 -36 251 -38 269 rcurveline
          171 -25 -69 53 -131 hhcurveto
          -46 -50 -5 -5 -29 hvcurveto
          -34 vlineto
          89 -4 37 -32 17 -126 rrcurveto
          34 -258 44 -319 184 -114 304 -7 rlinecurve
          -365 -34 callsubr
          513 7 callsubr
          endchar
        </CharString>
        <CharString name="Q">
          9 callsubr
          -436 317 -276 344 -29 vhcurveto
          157 -135 rlineto
          -166 190 82 -31 104 hhcurveto
          90 84 33 42 69 hvcurveto
          31 vlineto
          -120 -16 -108 38 -192 151 -98 76 rcurveline
          319 86 199 289 344 vvcurveto
          -103 callsubr
          -100 callsubr
          332 300 188 -305 -402 -1 vhcurveto
          -385 -1 -134 -294 -331 hhcurveto
          -300 -187 306 402 hvcurveto
          endchar
        </CharString>
        <CharString name="R">
          1289 1142 1057 111 callsubr
          endchar
        </CharString>
        <CharString name="Racute">
          1289 558 -92 callsubr
          627 -481 111 callsubr
          endchar
        </CharString>
        <CharString name="Rcaron">
          1289 821 -70 callsubr
          280 -766 111 callsubr
          endchar
        </CharString>
        <CharString name="Rcommaaccent">
          -102 callgsubr
          -271 -1493 -73 callsubr
        </CharString>
        <CharString name="Rdblgrave">
          1289 406 27 callsubr
          349 -479 111 callsubr
          endchar
        </CharString>
        <CharString name="Rdotaccent">
          1289 605 -82 callsubr
          537 -522 111 callsubr
          endchar
        </CharString>
        <CharString name="Rdotbelow">
          -102 callgsubr
          -266 -1239 -96 callsubr
        </CharString>
        <CharString name="Rdotbelowmacron">
          1289 370 -49 callsubr
          772 -648 111 callsubr
          -266 -1239 -96 callsubr
        </CharString>
        <CharString name="Rhogreek">
          1242 1156 1031 37 callsubr
        </CharString>
        <CharString name="Rinvertedbreve">
          1289 604 25 callsubr
          538 -812 111 callsubr
          endchar
        </CharString>
        <CharString name="Rlinebelow">
          -102 callgsubr
          -509 -1385 -75 callsubr
        </CharString>
        <CharString name="S">
          1137 558 -21 64 callsubr
          endchar
        </CharString>
        <CharString name="Sacute">
          1137 537 -92 callsubr
          64 -1559 64 callsubr
          endchar
        </CharString>
        <CharString name="Sacutedotaccent">
          1137 584 1754 rmoveto
          -71 callgsubr
          224 -1572 64 callsubr
          endchar
        </CharString>
        <CharString name="Scaron">
          1137 800 -70 callsubr
          -283 -1844 64 callsubr
          endchar
        </CharString>
        <CharString name="Scarondotaccent">
          1137 584 1773 rmoveto
          137 callsubr
          -67 callgsubr
          -282 -1741 64 callsubr
          endchar
        </CharString>
        <CharString name="Scedilla">
          1137 532 8 callsubr
          -47 callsubr
          70 96 rlineto
          254 11 210 163 246 vvcurveto
          200 -121 136 -241 87 vhcurveto
          -112 42 rlineto
          -179 66 -106 83 151 vvcurveto
          147 102 104 193 181 127 -120 -228 53 vhcurveto
          32 hlineto
          -13 306 rlineto
          47 -60 -131 45 -185 hhcurveto
          -267 -214 -137 -247 -196 128 -137 231 -82 hvcurveto
          114 -41 rlineto
          195 -71 91 -95 -149 vvcurveto
          -172 -125 -109 -178 -207 -170 124 260 -58 vhcurveto
          -32 hlineto
          14 -325 84 -58 147 -47 196 -4 rlinecurve
          -121 -158 -62 callsubr
          20 callsubr
          endchar
        </CharString>
        <CharString name="Schwa">
          1462 671 -21 rmoveto
          434 262 309 443 480 -316 256 -402 -242 -156 -47 -56 -79 hvcurveto
          -14 -325 rlineto
          32 hlineto
          237 51 153 141 242 hhcurveto
          311 181 -257 -420 -25 -1 -25 -1 -24 hvcurveto
          -1057 1 rlineto
          -3 -26 -2 -28 -27 vvcurveto
          -360 214 -247 393 vhcurveto
          -382 585 rmoveto
          18 1 20 1 18 vhcurveto
          833 5 rlineto
          -326 -24 -128 -270 -297 hhcurveto
          -296 -90 258 277 hvcurveto
          endchar
        </CharString>
        <CharString name="Scircumflex">
          1137 386 -69 callsubr
          213 -1558 64 callsubr
          endchar
        </CharString>
        <CharString name="Scommaaccent">
          1137 558 -21 64 callsubr
          -2 -429 -73 callsubr
        </CharString>
        <CharString name="Sdotaccent">
          1137 584 -82 callsubr
          -26 -1600 64 callsubr
          endchar
        </CharString>
        <CharString name="Sdotbelow">
          1137 558 -21 64 callsubr
          3 -175 -96 callsubr
        </CharString>
        <CharString name="Sdotbelowdotaccent">
          1137 584 -82 callsubr
          -26 -1600 64 callsubr
          3 -175 -96 callsubr
        </CharString>
        <CharString name="Shacyrillic">
          2214 2016 -48 callsubr
          -494 83 callsubr
          -488 83 callsubr
          -494 23 callsubr
          -107 callsubr
          2102 104 callsubr
        </CharString>
        <CharString name="Shchacyrillic">
          2252 2203 44 rmoveto
          -187 1239 hlineto
          62 callsubr
          -494 83 callsubr
          -488 83 callsubr
          -494 23 callsubr
          -107 callsubr
          1798 vlineto
          199 40 -40 -288 79 hvcurveto
          39 hlineto
          endchar
        </CharString>
        <CharString name="Sigmagreek">
          1230 1092 1444 rmoveto
          -1041 -32 hlineto
          524 -719 -515 -590 rlineto
          -103 1077 vlineto
          17 400 rlineto
          -32 hlineto
          -211 -56 -78 -30 -295 hhcurveto
          -528 hlineto
          579 626 0 16 -436 604 313 -10 324 -12 76 -61 55 -219 rlinecurve
          31 hlineto
          endchar
        </CharString>
        <CharString name="Softsigncyrillic">
          1247 1162 134 callsubr
          93 callsubr
          -46 callgsubr
          -232 -9 -79 callgsubr
        </CharString>
        <CharString name="T">
          1282 -26 callsubr
          -43 callsubr
          -33 callsubr
          -50 callsubr
          28 callsubr
          endchar
        </CharString>
        <CharString name="Taugreek">
          1282 -26 callsubr
          -43 callsubr
          -33 callsubr
          -50 callsubr
          28 callsubr
          endchar
        </CharString>
        <CharString name="Tbar">
          1282 263 717 rmoveto
          270 -542 hlineto
          -97 -19 -27 -134 -17 vhcurveto
          -34 -50 callsubr
          542 270 46 -270 641 -21 callgsubr
          -15 341 -1168 0 -15 -43 callsubr
          -641 -270 vlineto
          endchar
        </CharString>
        <CharString name="Tcaron">
          1282 857 -70 callsubr
          327 -379 rmoveto
          -1168 hlineto
          -15 -43 callsubr
          -33 callsubr
          -50 callsubr
          28 callsubr
          endchar
        </CharString>
        <CharString name="Tcedilla">
          1282 612 8 callsubr
          -88 callgsubr
          231 34 hlineto
          -135 17 -19 27 97 vvcurveto
          28 callsubr
          -15 341 -1168 0 -15 -43 callsubr
          -33 callsubr
          246 -87 callgsubr
          endchar
        </CharString>
        <CharString name="Tcircumflexbelow">
          1282 -26 callsubr
          -43 callsubr
          -33 callsubr
          -50 callsubr
          28 callsubr
          -807 -1549 -63 callsubr
        </CharString>
        <CharString name="Tcommaaccent">
          1282 -26 callsubr
          -43 callsubr
          -33 callsubr
          -50 callsubr
          28 callsubr
          -604 -1553 -73 callsubr
        </CharString>
        <CharString name="Tdotaccent">
          1282 641 -82 callsubr
          584 -135 rmoveto
          -1168 hlineto
          -15 -43 callsubr
          -33 callsubr
          -50 callsubr
          28 callsubr
          endchar
        </CharString>
        <CharString name="Tdotbelow">
          1282 -26 callsubr
          -43 callsubr
          -33 callsubr
          -50 callsubr
          28 callsubr
          -599 -1299 -96 callsubr
        </CharString>
        <CharString name="Tecyrillic">
          1282 -26 callsubr
          -43 callsubr
          -33 callsubr
          -50 callsubr
          28 callsubr
          endchar
        </CharString>
        <CharString name="Thetagreek">
          1629 816 -21 rmoveto
          433 284 333 411 461 -355 281 -365 -435 -283 -332 -411 -461 355 -282 366 hvcurveto
          8 49 rmoveto
          -303 -188 306 403 386 135 293 336 303 189 -304 -404 -386 -136 -294 -336 hvcurveto
          -311 476 rmoveto
          29 hlineto
          138 23 40 59 169 hhcurveto
          78 hlineto
          168 41 -59 -138 22 hvcurveto
          30 431 -30 hlineto
          -134 -22 -41 -56 -168 hhcurveto
          -78 hlineto
          -169 -40 56 134 -23 hvcurveto
          -29 hlineto
          endchar
        </CharString>
        <CharString name="Thorn">
          1222 1158 749 rmoveto
          260 -234 125 -372 vhcurveto
          -138 135 hlineto
          97 19 27 135 17 vhcurveto
          34 -512 -34 vlineto
          123 -18 19 -21 -87 vvcurveto
          -1124 vlineto
          -87 -19 -21 -123 -18 vhcurveto
          -34 -9 callsubr
          167 138 vlineto
          344 262 136 271 hvcurveto
          -232 -16 rmoveto
          -213 -146 -126 -271 -9 vhcurveto
          -95 -3 0 713 95 -3 rlineto
          275 -9 142 -142 -208 vvcurveto
          endchar
        </CharString>
        <CharString name="Tlinebelow">
          1282 -26 callsubr
          -43 callsubr
          -33 callsubr
          -50 callsubr
          28 callsubr
          -842 -1445 -75 callsubr
        </CharString>
        <CharString name="Tsecyrillic">
          1578 1529 44 rmoveto
          -187 1239 hlineto
          62 callsubr
          -494 -35 vlineto
          115 -17 21 -19 -84 vvcurveto
          -1245 -712 1245 -15 callsubr
          -107 callsubr
          1124 vlineto
          199 40 -40 -288 79 hvcurveto
          39 hlineto
          endchar
        </CharString>
        <CharString name="Tshecyrillic">
          1727 -26 callsubr
          -85 callgsubr
          523 vlineto
          47 78 94 21 117 hhcurveto
          219 106 -131 -251 hvcurveto
          -379 352 34 vlineto
          -115 18 -21 18 85 vvcurveto
          228 vlineto
          312 -200 131 -284 -148 -118 -34 -56 -80 vhcurveto
          667 -33 callgsubr
        </CharString>
        <CharString name="U">
          1463 166 1289 -77 callsubr
        </CharString>
        <CharString name="Uacute">
          1463 750 -92 callsubr
          -541 -249 -77 callsubr
        </CharString>
        <CharString name="Ubreve">
          1463 797 -7 callsubr
          -631 -299 -77 callsubr
        </CharString>
        <CharString name="Ubrevecyrillic">
          1384 771 1590 rmoveto
          72 callsubr
          -536 -1479 148 callsubr
        </CharString>
        <CharString name="Ucaron">
          1463 1013 -70 callsubr
          -888 -534 -77 callsubr
        </CharString>
        <CharString name="Ucircumflex">
          1463 599 -69 callsubr
          -392 -248 -77 callsubr
        </CharString>
        <CharString name="Ucircumflexbelow">
          89 callsubr
          396 -1735 -63 callsubr
        </CharString>
        <CharString name="Ucyrillic">
          1384 235 111 148 callsubr
        </CharString>
        <CharString name="Udblgrave">
          1463 598 27 callsubr
          -819 -247 -77 callsubr
        </CharString>
        <CharString name="Udieresis">
          1463 645 -60 callsubr
          -784 -289 -77 callsubr
        </CharString>
        <CharString name="Udieresisacute">
          1463 1046 26 callsubr
          111 -192 rmoveto
          -52 callsubr
          -39 callsubr
          -770 -277 -77 callsubr
        </CharString>
        <CharString name="Udieresisbelow">
          89 callsubr
          417 -1669 rmoveto
          91 callsubr
          374 hmoveto
          91 callsubr
          endchar
        </CharString>
        <CharString name="Udieresiscaron">
          1463 1046 1948 rmoveto
          -249 -87 -250 87 0 -31 234 -161 32 0 233 161 rlineto
          -388 -351 rmoveto
          -52 callsubr
          -39 callsubr
          -770 -277 -77 callsubr
        </CharString>
        <CharString name="Udieresisgrave">
          1463 548 1833 rmoveto
          499 -75 0 32 -499 156 rlineto
          110 -380 rmoveto
          -52 callsubr
          -39 callsubr
          -770 -277 -77 callsubr
        </CharString>
        <CharString name="Udieresismacron">
          1463 547 57 callsubr
          111 -328 rmoveto
          -52 callsubr
          -39 callsubr
          -770 -277 -77 callsubr
        </CharString>
        <CharString name="Udotbelow">
          89 callsubr
          604 -1485 -96 callsubr
        </CharString>
        <CharString name="Ugrave">
          1463 862 -36 callsubr
          -393 -511 -77 callsubr
        </CharString>
        <CharString name="Uhookabove">
          1463 818 -6 callsubr
          -652 -560 -77 callsubr
        </CharString>
        <CharString name="Uhorn">
          1563 178 550 42 callsubr
        </CharString>
        <CharString name="Uhornacute">
          1563 778 -92 callsubr
          -557 -988 42 callsubr
        </CharString>
        <CharString name="Uhorndotbelow">
          1563 178 550 rmoveto
          -411 277 -160 293 360 194 221 333 3 vhcurveto
          6 892 rlineto
          -2 16 18 -2 17 hhcurveto
          143 79 60 98 83 -60 78 -83 37 hvcurveto
          -34 hlineto
          19 -24 16 -51 158 callsubr
          634 -1473 -96 callsubr
        </CharString>
        <CharString name="Uhorngrave">
          1563 890 -36 callsubr
          -409 -1250 42 callsubr
        </CharString>
        <CharString name="Uhornhookabove">
          1563 846 -6 callsubr
          -668 -1299 42 callsubr
        </CharString>
        <CharString name="Uhorntilde">
          1563 930 -32 callsubr
          -752 -1010 42 callsubr
        </CharString>
        <CharString name="Uhungarumlaut">
          1463 705 1805 125 callsubr
          -1040 -517 -77 callsubr
        </CharString>
        <CharString name="Uinvertedbreve">
          1463 796 25 callsubr
          -630 -580 -77 callsubr
        </CharString>
        <CharString name="Umacron">
          1463 562 -49 callsubr
          -396 -416 -77 callsubr
        </CharString>
        <CharString name="Umacrondieresis">
          1463 658 1782 rmoveto
          3 callsubr
          -54 callgsubr
          -400 -389 -77 callsubr
        </CharString>
        <CharString name="Uogonek">
          1463 791 -478 rmoveto
          78 67 39 57 26 hvcurveto
          -1 34 rlineto
          -20 -16 -29 -16 -35 hhcurveto
          -72 -56 82 105 70 17 65 29 44 hvcurveto
          320 25 168 220 5 321 rrcurveto
          8 639 3 167 19 39 123 16 rlinecurve
          35 -372 -34 vlineto
          134 -19 20 -37 2 171 callsubr
          -95 callgsubr
          vhcurveto
          9 8 0 9 hhcurveto
          -95 -82 -59 -96 -100 vvcurveto
          -107 79 -72 105 vhcurveto
          endchar
        </CharString>
        <CharString name="Upsilondieresisgreek">
          1304 569 -60 callsubr
          -652 -375 -45 callsubr
        </CharString>
        <CharString name="Upsilongreek">
          1304 222 1203 -45 callsubr
        </CharString>
        <CharString name="Upsilontonosgreek">
          1596 514 -72 callgsubr
          -474 -111 94 callsubr
          endchar
        </CharString>
        <CharString name="Uring">
          1463 578 1721 120 callsubr
          -543 -432 -77 callsubr
        </CharString>
        <CharString name="Utilde">
          1463 902 -32 callsubr
          -736 -271 -77 callsubr
        </CharString>
        <CharString name="Utildeacute">
          1463 1046 26 callsubr
          360 -188 -64 callsubr
          -741 -281 -77 callsubr
        </CharString>
        <CharString name="Utildebelow">
          89 callsubr
          706 -1683 rmoveto
          -1 callsubr
        </CharString>
        <CharString name="V">
          -32 callgsubr
          endchar
        </CharString>
        <CharString name="Vdotbelow">
          -32 callgsubr
          491 -1402 -96 callsubr
        </CharString>
        <CharString name="Vecyrillic">
          1294 1208 411 76 callsubr
        </CharString>
        <CharString name="Vtilde">
          1341 834 -32 callsubr
          -654 -354 rmoveto
          165 callsubr
          endchar
        </CharString>
        <CharString name="W">
          2092 179 1206 14 callsubr
        </CharString>
        <CharString name="Wacute">
          2092 1052 -92 callsubr
          -830 -332 14 callsubr
        </CharString>
        <CharString name="Wcircumflex">
          2092 901 -69 callsubr
          -681 -331 14 callsubr
        </CharString>
        <CharString name="Wdieresis">
          2092 947 -60 callsubr
          -1073 -372 14 callsubr
        </CharString>
        <CharString name="Wdotaccent">
          2092 1099 -82 callsubr
          -920 -373 14 callsubr
        </CharString>
        <CharString name="Wdotbelow">
          2092 179 1206 rmoveto
          395 -1212 86 0 390 1216 379 -1216 86 0 383 1164 65 199 36 -97 callgsubr
          156 callsubr
          872 -1402 -96 callsubr
        </CharString>
        <CharString name="Wgrave">
          2092 1164 -36 callsubr
          -682 -594 14 callsubr
        </CharString>
        <CharString name="X">
          1334 285 291 34 callsubr
        </CharString>
        <CharString name="Xdieresis">
          1334 576 -60 callsubr
          -596 -1287 34 callsubr
        </CharString>
        <CharString name="Xdotaccent">
          1334 728 -82 callsubr
          -443 -1288 34 callsubr
        </CharString>
        <CharString name="Xigreek">
          1334 1237 1444 rmoveto
          -1141 hlineto
          -15 -349 rlineto
          31 hlineto
          171 54 83 33 265 hhcurveto
          306 hlineto
          265 83 -33 -171 53 hvcurveto
          32 hlineto
          -654 -385 rmoveto
          135 hlineto
          212 44 -50 -141 25 hvcurveto
          29 420 -29 hlineto
          -138 -26 -43 -46 -212 hhcurveto
          -135 -37 callgsubr
          25 43 50 212 hhcurveto
          654 -710 rmoveto
          17 387 rlineto
          -32 hlineto
          -208 -55 -78 -29 -294 hhcurveto
          -288 hlineto
          -294 -79 29 208 -55 hvcurveto
          -31 hlineto
          17 -387 rlineto
          endchar
        </CharString>
        <CharString name="Xigreek.1">
          1335 600 710 rmoveto
          46 -560 -123 hlineto
          -293 -79 30 207 -55 hvcurveto
          -31 hlineto
          17 -387 1171 0 18 387 rlineto
          -32 hlineto
          -208 -55 -79 -29 -293 hhcurveto
          -124 560 47 hlineto
          212 44 -50 -141 24 hvcurveto
          30 420 -30 hlineto
          -138 -25 -43 -46 -212 hhcurveto
          -47 544 133 hlineto
          264 84 -33 -171 53 hvcurveto
          32 hlineto
          -16 349 -1141 0 -16 -349 rlineto
          32 hlineto
          171 53 84 33 265 hhcurveto
          131 -544 -46 -37 callgsubr
          24 44 50 212 hhcurveto
          endchar
        </CharString>
        <CharString name="Y">
          1304 222 1203 -45 callsubr
        </CharString>
        <CharString name="Yacute">
          1304 674 -92 callsubr
          -409 -335 -45 callsubr
        </CharString>
        <CharString name="Ycircumflex">
          1304 523 -69 callsubr
          -260 -334 -45 callsubr
        </CharString>
        <CharString name="Ydieresis">
          1304 569 -60 callsubr
          -652 -375 -45 callsubr
        </CharString>
        <CharString name="Ydotaccent">
          1304 721 -82 callsubr
          -499 -376 -45 callsubr
        </CharString>
        <CharString name="Ydotbelow">
          1304 222 -72 callgsubr
          437 -1399 -96 callsubr
        </CharString>
        <CharString name="Yericyrillic">
          1781 1162 134 callsubr
          93 callsubr
          -46 callgsubr
          420 -274 -76 callsubr
          -89 callsubr
          -107 callsubr
          6 callsubr
          -652 265 -79 callgsubr
        </CharString>
        <CharString name="Ygrave">
          1304 786 -36 callsubr
          -261 -597 -45 callsubr
        </CharString>
        <CharString name="Yhookabove">
          1304 742 -6 callsubr
          -520 -646 -45 callsubr
        </CharString>
        <CharString name="Yicyrillic">
          612 154 -60 callsubr
          -45 -1417 -76 callsubr
          -89 callsubr
          -107 callsubr
          -74 callsubr
        </CharString>
        <CharString name="Ymacron">
          1304 486 -49 callsubr
          -264 -502 -45 callsubr
        </CharString>
        <CharString name="Ytilde">
          1304 826 -32 callsubr
          -604 -357 -45 callsubr
        </CharString>
        <CharString name="Z">
          1239 1145 hmoveto
          40 callsubr
          endchar
        </CharString>
        <CharString name="Zacute">
          1239 579 -92 callsubr
          609 -1538 rmoveto
          40 callsubr
          endchar
        </CharString>
        <CharString name="Zcaron">
          1239 842 -70 callsubr
          262 -1823 rmoveto
          40 callsubr
          endchar
        </CharString>
        <CharString name="Zcircumflex">
          1239 428 -69 callsubr
          758 -1537 rmoveto
          40 callsubr
          endchar
        </CharString>
        <CharString name="Zdotaccent">
          1239 626 -82 callsubr
          519 -1579 rmoveto
          40 callsubr
          endchar
        </CharString>
        <CharString name="Zdotbelow">
          1239 1145 hmoveto
          40 callsubr
          546 -202 -96 callsubr
        </CharString>
        <CharString name="Zecyrillic">
          1209 1123 414 rmoveto
          243 -217 103 -255 16 vhcurveto
          228 29 187 115 196 vvcurveto
          223 -178 126 -328 -192 -139 -53 -60 -75 vhcurveto
          -13 -275 rlineto
          31 hlineto
          217 53 121 121 204 hhcurveto
          218 76 -143 -181 -197 -117 -110 -209 hvcurveto
          -147 -42 147 hlineto
          243 135 -126 -218 -243 -142 -126 -234 -185 -141 100 244 -58 hvcurveto
          -31 hlineto
          16 -275 rlineto
          -62 81 148 -57 180 hhcurveto
          324 269 135 300 hvcurveto
          endchar
        </CharString>
        <CharString name="Zetagreek">
          1239 1145 hmoveto
          40 callsubr
          endchar
        </CharString>
        <CharString name="Zhecyrillic">
          1975 305 hmoveto
          458 729 116 2 rlineto
          -576 105 callsubr
          479 34 vlineto
          -117 18 -19 18 85 vvcurveto
          576 vlineto
          116 -2 458 -729 rlineto
          318 32 hlineto
          -80 21 -49 44 -134 213 rrcurveto
          -362 577 293 323 118 130 72 51 104 19 rlinecurve
          34 -394 -34 vlineto
          144 -14 -7 -55 -91 -108 rrcurveto
          -389 -458 -117 -2 rlineto
          516 vlineto
          85 19 18 117 18 vhcurveto
          34 -479 -34 vlineto
          117 -18 19 -18 -85 vvcurveto
          -516 vlineto
          -117 2 -388 458 -91 108 -7 55 144 14 rlinecurve
          34 -394 -34 vlineto
          104 -19 71 -52 117 -129 rrcurveto
          300 -331 -356 -569 -135 -213 -50 -44 -81 -21 rlinecurve
          -32 vlineto
          endchar
        </CharString>
        <CharString name="Zlinebelow">
          1239 1145 hmoveto
          40 callsubr
          303 -348 -75 callsubr
        </CharString>
        <CharString name="a">
          1017 363 -18 -102 callsubr
          -91 callsubr
        </CharString>
        <CharString name="a.dnum">
          622 215 -10 110 callsubr
        </CharString>
        <CharString name="a.numr">
          599 215 707 110 callsubr
        </CharString>
        <CharString name="a.sups">
          622 215 874 110 callsubr
        </CharString>
        <CharString name="aacute">
          1017 421 -86 callsubr
          -15 -1106 -102 callsubr
          -91 callsubr
        </CharString>
        <CharString name="abreve">
          1017 477 -4 callsubr
          -114 -1146 -102 callsubr
          -91 callsubr
        </CharString>
        <CharString name="abreveacute">
          1017 720 -27 callsubr
          243 -264 -17 callsubr
          -114 -1098 -102 callsubr
          -91 callsubr
        </CharString>
        <CharString name="abrevecyrillic">
          1017 477 1121 rmoveto
          73 callsubr
          -114 -1139 -102 callsubr
          -91 callsubr
        </CharString>
        <CharString name="abrevedotbelow">
          1017 477 -4 callsubr
          -114 -1146 -102 callsubr
          35 callsubr
          230 -642 -93 callsubr
        </CharString>
        <CharString name="abrevegrave">
          1017 234 -11 callsubr
          243 -484 -17 callsubr
          -114 -1098 -102 callsubr
          -91 callsubr
        </CharString>
        <CharString name="abrevehookabove">
          1017 470 1545 rmoveto
          -75 -50 -38 -34 -28 hvcurveto
          -32 vlineto
          14 19 37 13 41 128 callsubr
          -73 42 -79 vhcurveto
          7 -465 -17 callsubr
          -114 -1098 -102 callsubr
          -91 callsubr
        </CharString>
        <CharString name="abrevetilde">
          1017 584 15 callsubr
          -107 -287 -17 callsubr
          -114 -1098 -102 callsubr
          -91 callsubr
        </CharString>
        <CharString name="acaron">
          1017 701 -59 callsubr
          -381 -1481 -102 callsubr
          -91 callsubr
        </CharString>
        <CharString name="acircumflex">
          1017 253 -72 callsubr
          153 -1106 -102 callsubr
          -91 callsubr
        </CharString>
        <CharString name="acircumflexacute">
          1017 720 -27 callsubr
          -275 vmoveto
          -37 callsubr
          129 -1125 -102 callsubr
          -91 callsubr
        </CharString>
        <CharString name="acircumflexdotbelow">
          1017 253 -72 callsubr
          153 -1106 -102 callsubr
          35 callsubr
          230 -642 -93 callsubr
        </CharString>
        <CharString name="acircumflexgrave">
          1017 234 -11 callsubr
          -495 vmoveto
          -37 callsubr
          129 -1125 -102 callsubr
          -91 callsubr
        </CharString>
        <CharString name="acircumflexhookabove">
          1017 664 78 callsubr
          129 -1125 -102 callsubr
          -91 callsubr
        </CharString>
        <CharString name="acircumflextilde">
          1017 584 15 callsubr
          101 callsubr
          129 -1125 -102 callsubr
          -91 callsubr
        </CharString>
        <CharString name="acute">
          1024 456 -86 callsubr
          endchar
        </CharString>
        <CharString name="acutecmb">
          0 -56 -86 callsubr
          endchar
        </CharString>
        <CharString name="acutecmb.short">
          0 -47 1061 92 callsubr
          endchar
        </CharString>
        <CharString name="acutedotaccentcmb">
          0 1332 vmoveto
          133 callsubr
          -154 rmoveto
          132 vlineto
          -486 -183 rlineto
          -38 vlineto
          endchar
        </CharString>
        <CharString name="acutedotaccentcmb.short">
          0 1754 vmoveto
          -71 callgsubr
          endchar
        </CharString>
        <CharString name="acyrillic">
          1017 363 -18 -102 callsubr
          -91 callsubr
        </CharString>
        <CharString name="adblgrave">
          1017 237 -16 callsubr
          -303 -1106 -102 callsubr
          -91 callsubr
        </CharString>
        <CharString name="adieresis">
          1017 276 -61 callsubr
          -315 -1185 -102 callsubr
          -91 callsubr
        </CharString>
        <CharString name="adieresismacron">
          1017 233 58 callsubr
          97 -386 rmoveto
          -53 callsubr
          -40 callsubr
          -261 -1121 -102 callsubr
          -91 callsubr
        </CharString>
        <CharString name="adotaccent">
          1017 477 -67 callsubr
          -114 -1178 -102 callsubr
          -91 callsubr
        </CharString>
        <CharString name="adotbelow">
          1017 363 -18 -102 callsubr
          35 callsubr
          230 -642 -93 callsubr
        </CharString>
        <CharString name="adotmacron">
          1017 233 123 callsubr
          -114 -1122 -102 callsubr
          -91 callsubr
        </CharString>
        <CharString name="ae">
          1579 364 -18 108 callsubr
        </CharString>
        <CharString name="aeacute">
          1579 733 -86 callsubr
          -326 -1106 108 callsubr
        </CharString>
        <CharString name="aemacron">
          1579 528 -42 callsubr
          -164 -1336 108 callsubr
        </CharString>
        <CharString name="agrave">
          1017 533 -51 callsubr
          151 -1451 -102 callsubr
          -91 callsubr
        </CharString>
        <CharString name="ahookabove">
          1017 504 -29 callsubr
          -141 -1464 -102 callsubr
          -91 callsubr
        </CharString>
        <CharString name="ainvertedbreve">
          1017 477 59 callsubr
          -114 -1441 -102 callsubr
          -91 callsubr
        </CharString>
        <CharString name="alphagreek">
          1218 449 -18 140 callsubr
        </CharString>
        <CharString name="alphatonosgreek">
          1218 574 -20 callsubr
          -86 -1106 140 callsubr
        </CharString>
        <CharString name="amacron">
          1017 216 -42 callsubr
          147 -1336 -102 callsubr
          -91 callsubr
        </CharString>
        <CharString name="ampersand">
          1559 499 -20 rmoveto
          189 143 98 177 141 hvcurveto
          262 -255 rlineto
          330 32 hlineto
          -75 24 -74 55 -138 132 rrcurveto
          -183 179 146 207 126 177 47 40 103 12 rlinecurve
          34 -399 -34 vlineto
          139 -18 29 -51 -102 -157 rrcurveto
          -117 -183 -337 329 -18 17 -16 17 -16 15 rlinecurve
          206 88 123 109 151 vvcurveto
          159 -134 132 -240 -223 -153 -146 -181 -125 53 -98 134 -144 vhcurveto
          -238 -89 -123 -143 -178 vvcurveto
          -219 172 -163 243 vhcurveto
          -67 1236 rmoveto
          129 85 72 117 130 75 -111 -137 -129 -60 -110 -126 -77 vhcurveto
          -157 158 -64 90 115 vvcurveto
          -161 -762 rmoveto
          119 63 101 137 71 vhcurveto
          30 -31 33 -33 37 -36 377 -367 rcurveline
          -128 -103 -108 -59 -113 hhcurveto
          -190 -163 145 218 hvcurveto
          endchar
        </CharString>
        <CharString name="anoteleiagreek">
          470 235 745 19 callsubr
          56 -55 66 hvcurveto
          endchar
        </CharString>
        <CharString name="aogonek">
          1021 363 -18 -102 callsubr
          20 18 2 3 18 hvcurveto
          -10 -6 rlineto
          -178 -105 -72 -93 -102 vvcurveto
          -99 80 -65 98 88 67 36 53 33 vhcurveto
          -1 34 rlineto
          -20 -17 -35 -11 -37 hhcurveto
          -59 -52 42 81 94 52 87 139 110 hvcurveto
          31 vlineto
          -4 -12 -15 -3 -17 hhcurveto
          -61 -45 37 88 hvcurveto
          510 vlineto
          207 -148 91 -219 -216 -162 -93 -124 -59 48 -44 56 59 46 44 57 59 -46 44 -53 vhcurveto
          -5 hlineto
          38 50 71 21 79 hhcurveto
          150 98 -70 -190 hvcurveto
          -105 vlineto
          -203 -44 rlineto
          -272 -59 -109 -90 -148 vvcurveto
          -144 120 -96 160 vhcurveto
          -80 274 rmoveto
          120 65 74 212 47 vhcurveto
          107 24 rlineto
          -356 vlineto
          -65 -42 -67 -33 -87 hhcurveto
          -106 -82 69 120 hvcurveto
          endchar
        </CharString>
        <CharString name="approxequal">
          1115 825 680 rmoveto
          -86 callgsubr
          100 215 hvcurveto
          -58 hlineto
          -176 -2 -72 -75 -99 hhcurveto
          -446 vmoveto
          -86 callgsubr
          -30 callgsubr
        </CharString>
        <CharString name="aring">
          1017 235 13 callsubr
          -16 -1292 -102 callsubr
          -91 callsubr
        </CharString>
        <CharString name="aringacute">
          1017 720 1434 rmoveto
          132 vlineto
          -486 164 callsubr
          -132 -1129 -102 callsubr
          -91 callsubr
        </CharString>
        <CharString name="aringbelow">
          1017 363 -18 -102 callsubr
          35 callsubr
          -12 -545 118 callsubr
        </CharString>
        <CharString name="asciicircum">
          1115 542 1444 rmoveto
          -408 -565 44 -41 379 523 377 -523 47 41 -409 565 rlineto
          endchar
        </CharString>
        <CharString name="asciitilde">
          1115 825 480 rmoveto
          -86 callgsubr
          -30 callgsubr
        </CharString>
        <CharString name="asterisk">
          699 340 1159 rmoveto
          19 hlineto
          56 205 rlineto
          62 18 -39 40 -44 hhcurveto
          -46 -38 -40 -62 18 hvcurveto
          83 -207 rmoveto
          8 -17 199 54 rlineto
          63 16 15 53 -23 38 -23 40 -54 14 -44 -48 rrcurveto
          -184 -167 rmoveto
          8 17 -141 150 rlineto
          -44 47 -54 -13 -23 -40 -22 -39 15 -53 62 -16 rrcurveto
          207 -77 rmoveto
          -8 17 -199 -54 rlineto
          -62 -16 -15 -53 22 -38 23 -40 55 -14 43 48 rrcurveto
          184 167 rmoveto
          -8 -16 142 -151 rlineto
          43 -47 54 13 23 40 23 39 -15 52 -62 16 rrcurveto
          -216 33 rmoveto
          -18 hlineto
          -56 -205 rlineto
          -62 -19 38 -40 46 hhcurveto
          45 39 40 62 -19 hvcurveto
          endchar
        </CharString>
        <CharString name="at">
          1941 561 356 rmoveto
          -187 72 -136 146 123 132 99 174 62 vhcurveto
          0 -12 -56 -1 hvcurveto
          -155 -28 80 -90 176 hhcurveto
          242 296 238 426 442 -353 280 -443 -488 -479 -374 -617 -494 355 -330 424 157 170 34 83 111 hvcurveto
          1 37 rlineto
          -80 -129 -146 -24 -153 hhcurveto
          -402 -332 304 477 578 452 356 460 406 333 -247 -428 -406 -275 -202 -178 -58 -62 33 137 29 hvcurveto
          155 725 -53 0 -143 -128 rlineto
          89 -32 -63 55 -106 hhcurveto
          -265 -182 -315 -297 hvcurveto
          182 -23 rmoveto
          257 115 319 189 78 48 -54 -84 17 vhcurveto
          -78 -369 rlineto
          -136 -29 -111 -158 -118 hhcurveto
          -83 -28 98 127 hvcurveto
          endchar
        </CharString>
        <CharString name="atilde">
          1017 587 -46 callsubr
          -224 -1170 -102 callsubr
          -91 callsubr
        </CharString>
        <CharString name="austral">
          1360 232 265 rmoveto
          -65 -187 -36 -28 -105 -16 rrcurveto
          -34 376 34 vlineto
          -142 20 -22 35 57 174 rrcurveto
          44 133 559 0 53 -157 49 -145 -21 -43 -134 -17 rlinecurve
          -34 504 34 vlineto
          -93 13 -39 31 -57 160 -56 158 rcurveline
          245 36 -258 hlineto
          -88 246 rlineto
          346 36 -359 hlineto
          -262 737 -79 0 -259 -737 rlineto
          -364 -36 351 hlineto
          -86 -246 rlineto
          -265 -36 252 hlineto
          167 318 rmoveto
          171 515 174 -515 rlineto
          -439 -282 rmoveto
          82 246 370 0 83 -246 rlineto
          endchar
        </CharString>
        <CharString name="austral.tnum">
          1116 -8 432 rmoveto
          -36 217 vlineto
          -38 -132 -55 -187 -31 -30 -93 -13 rlinecurve
          -34 323 34 vlineto
          -120 16 -16 31 50 183 rrcurveto
          36 132 443 0 43 -155 42 -154 -14 -39 -114 -14 rlinecurve
          -34 458 34 vlineto
          -84 12 -31 31 -49 164 -46 155 rcurveline
          210 36 -220 hlineto
          -73 246 rlineto
          293 36 -303 hlineto
          -217 736 -89 0 -213 -736 rlineto
          -309 -36 299 hlineto
          -71 -246 rlineto
          132 282 rmoveto
          134 489 135 -489 rlineto
          -346 -282 rmoveto
          67 246 289 0 67 -246 rlineto
          endchar
        </CharString>
        <CharString name="b">
          106 callsubr
          68 callsubr
          endchar
        </CharString>
        <CharString name="backslash">
          650 537 -280 rmoveto
          75 hlineto
          -498 1860 rlineto
          -75 hlineto
          endchar
        </CharString>
        <CharString name="baht">
          1264 81 30 rmoveto
          489 hlineto
          17 16 0 1 17 hvcurveto
          -220 36 222 vlineto
          278 21 235 122 247 vvcurveto
          221 -190 119 -282 14 vhcurveto
          210 18 187 101 194 vvcurveto
          194 -162 109 -276 18 vhcurveto
          221 -36 -219 vlineto
          1 -16 -17 0 -17 hhcurveto
          -489 -36 callgsubr
          339 1310 rmoveto
          107 -4 34 -1 31 -3 28 -4 rlinecurve
          -576 vlineto
          -1 -11 -12 0 -12 hhcurveto
          -165 -1 rlineto
          471 287 rmoveto
          -167 -86 -92 -149 -22 vhcurveto
          565 vlineto
          170 -39 65 -107 -138 vvcurveto
          -471 -327 rmoveto
          165 -2 rlineto
          12 12 -1 11 hhcurveto
          -659 vlineto
          -29 -4 -31 -3 -33 -1 -107 -4 rcurveline
          537 343 rmoveto
          -178 -107 -110 -194 -37 vhcurveto
          649 vlineto
          195 -25 106 -122 -177 vvcurveto
          endchar
        </CharString>
        <CharString name="baht.tnum">
          1116 47 30 rmoveto
          466 hlineto
          11 11 0 1 11 hvcurveto
          -220 36 221 vlineto
          263 19 232 124 244 -57 callgsubr
          186 -152 108 -270 15 vhcurveto
          220 -36 -218 vlineto
          -11 -11 0 -11 hhcurveto
          -466 -61 callgsubr
          331 1310 rmoveto
          100 -2 24 -1 23 -2 21 -3 rlinecurve
          -582 vlineto
          -1 -9 -9 0 -9 hhcurveto
          -141 -1 rlineto
          424 297 rmoveto
          -165 -79 -102 -141 -24 vhcurveto
          571 vlineto
          152 -36 68 -104 -140 vvcurveto
          -424 -335 rmoveto
          141 -2 rlineto
          9 9 0 -1 9 hvcurveto
          -665 vlineto
          -22 -3 -22 -2 -24 -1 -100 -2 rcurveline
          489 342 rmoveto
          -181 -109 -112 -176 -35 vhcurveto
          656 vlineto
          183 -25 102 -125 -178 vvcurveto
          endchar
        </CharString>
        <CharString name="bar">
          650 288 -280 rmoveto
          75 1860 -75 hlineto
          endchar
        </CharString>
        <CharString name="bdotaccent">
          1156 258 1636 rmoveto
          -45 callgsubr
          811 -1144 rmoveto
          68 callsubr
          endchar
        </CharString>
        <CharString name="bdotbelow">
          106 callsubr
          68 callsubr
          -262 -854 -93 callsubr
        </CharString>
        <CharString name="becyrillic">
          1183 1096 485 rmoveto
          301 -207 188 -279 -223 -155 -139 -184 -60 vhcurveto
          -5 38 -2 41 42 vvcurveto
          227 105 180 336 40 vhcurveto
          123 14 248 30 78 61 15 177 rlinecurve
          -35 hlineto
          -16 -54 -55 -13 -212 -23 -213 -24 -127 -54 -110 -105 rrcurveto
          -126 -120 -76 -205 -315 vvcurveto
          -364 172 -242 319 267 238 204 299 vhcurveto
          -215 -13 rmoveto
          -269 -95 -173 -186 -179 -101 192 260 270 95 174 186 177 103 -191 -263 vhcurveto
          endchar
        </CharString>
        <CharString name="betagreek">
          1160 139 -460 rmoveto
          204 hlineto
          -3 212 -3 185 -2 162 rrcurveto
          -69 56 106 -49 127 hhcurveto
          212 230 139 284 262 -181 163 -252 17 hvcurveto
          175 18 178 115 190 vvcurveto
          204 -162 119 -247 -232 -201 -124 -358 -1 vhcurveto
          187 105 rmoveto
          219 85 109 161 148 76 -119 -170 -183 -106 -111 -226 -5 vhcurveto
          -142 vlineto
          264 -3 145 -140 -225 vvcurveto
          -202 -123 -104 -164 -115 -94 47 64 -46 vhcurveto
          -6 507 1 276 182 vvcurveto
          endchar
        </CharString>
        <CharString name="bitcoin">
          1263 81 30 rmoveto
          390 -219 36 219 62 hlineto
          64 62 5 10 59 hvcurveto
          -234 36 241 vlineto
          215 46 163 119 206 vvcurveto
          221 -190 119 -282 14 vhcurveto
          211 18 187 101 194 vvcurveto
          160 -110 102 -194 41 vhcurveto
          239 -36 -232 vlineto
          9 -56 -62 5 -67 hhcurveto
          -62 218 -36 -218 -390 -36 callgsubr
          809 1007 rmoveto
          -192 -113 -93 -193 -1 vhcurveto
          -164 -1 0 590 107 -4 rlineto
          266 -8 97 -122 -169 vvcurveto
          66 -658 rmoveto
          -214 -155 -116 -274 -9 vhcurveto
          -107 -4 0 674 164 -2 rlineto
          240 -2 132 -130 -197 vvcurveto
          endchar
        </CharString>
        <CharString name="bitcoin.tnum">
          1116 47 30 rmoveto
          362 -219 36 219 68 hlineto
          57 57 5 10 54 hvcurveto
          -234 36 241 vlineto
          203 46 157 120 201 -57 callgsubr
          152 -102 100 -185 40 vhcurveto
          237 -36 -231 vlineto
          9 -51 -56 4 -61 hhcurveto
          -68 218 -36 -218 -362 -61 callgsubr
          755 1015 rmoveto
          -188 -103 -107 -180 -1 vhcurveto
          -140 -1 0 592 99 -2 rlineto
          224 -8 100 -116 -169 vvcurveto
          64 -669 rmoveto
          -214 -152 -118 -236 -8 vhcurveto
          -99 -2 0 676 140 -2 rlineto
          221 -2 126 -132 -198 vvcurveto
          endchar
        </CharString>
        <CharString name="blinebelow">
          106 callsubr
          68 callsubr
          -505 -810 -75 callsubr
        </CharString>
        <CharString name="braceleft">
          650 392 975 rmoveto
          287 vlineto
          173 35 110 168 vhcurveto
          35 -40 vlineto
          -213 -114 -120 -227 hvcurveto
          -344 vlineto
          -154 -89 -68 -110 vhcurveto
          -29 vlineto
          110 89 -68 -157 hvcurveto
          -345 vlineto
          -228 114 -120 213 vhcurveto
          40 35 hlineto
          -168 -35 110 174 hvcurveto
          291 vlineto
          199 -89 99 -200 24 vhcurveto
          204 24 85 99 200 vvcurveto
          endchar
        </CharString>
        <CharString name="braceright">
          650 257 975 rmoveto
          -200 86 -99 203 -24 vhcurveto
          -199 -24 -90 -99 -199 vvcurveto
          -291 vlineto
          -174 -34 -110 -168 vhcurveto
          -35 39 vlineto
          214 114 120 228 hvcurveto
          345 vlineto
          157 89 68 109 vhcurveto
          29 vlineto
          -109 -89 68 154 hvcurveto
          344 vlineto
          227 -114 120 -214 vhcurveto
          -39 -35 hlineto
          168 34 -110 -173 hvcurveto
          endchar
        </CharString>
        <CharString name="bracketleft">
          650 189 -285 rmoveto
          380 5 0 36 -212 7 0 1774 212 7 0 36 -380 5 rlineto
          endchar
        </CharString>
        <CharString name="bracketright">
          650 461 1585 rmoveto
          -380 -5 0 -36 211 -7 0 -1774 -211 -7 0 -36 380 -5 rlineto
          endchar
        </CharString>
        <CharString name="breve">
          1024 512 -4 callsubr
          endchar
        </CharString>
        <CharString name="breveacutecmb">
          -106 callgsubr
          243 -264 -17 callsubr
          endchar
        </CharString>
        <CharString name="breveacutecmb.short">
          0 249 60 callsubr
          250 -215 0 callsubr
          endchar
        </CharString>
        <CharString name="brevebelowcmb">
          0 -432 vmoveto
          119 callsubr
        </CharString>
        <CharString name="brevecmb">
          0 1128 vmoveto
          174 callsubr
          endchar
        </CharString>
        <CharString name="brevecmb.short">
          0 1112 vmoveto
          175 callsubr
          endchar
        </CharString>
        <CharString name="brevecyrilliccmb">
          0 1121 vmoveto
          73 callsubr
          endchar
        </CharString>
        <CharString name="brevecyrilliccmb.short">
          0 1590 vmoveto
          72 callsubr
          endchar
        </CharString>
        <CharString name="brevegravecmb">
          0 -243 -11 callsubr
          243 -484 -17 callsubr
          endchar
        </CharString>
        <CharString name="brevegravecmb.short">
          0 -249 54 callsubr
          249 -402 0 callsubr
          endchar
        </CharString>
        <CharString name="brevehookabovecmb">
          0 -7 1545 rmoveto
          -75 -50 -38 -34 -28 hvcurveto
          -32 vlineto
          14 19 37 13 41 128 callsubr
          -73 42 -79 vhcurveto
          7 -465 -17 callsubr
          endchar
        </CharString>
        <CharString name="brevehookabovecmb.short">
          0 -7 168 callsubr
          endchar
        </CharString>
        <CharString name="brevetildecmb">
          0 107 15 callsubr
          -107 -287 -17 callsubr
          endchar
        </CharString>
        <CharString name="brevetildecmb.short">
          0 110 1786 -64 callsubr
          -110 -242 0 callsubr
          endchar
        </CharString>
        <CharString name="brokenbar">
          650 288 789 rmoveto
          75 791 -75 hlineto
          -1860 vmoveto
          75 791 -75 hlineto
          endchar
        </CharString>
        <CharString name="bullet">
          654 327 392 rmoveto
          94 77 77 95 96 -77 75 -94 -93 -78 -75 -96 -95 78 -77 93 hvcurveto
          endchar
        </CharString>
        <CharString name="c">
          969 558 -18 16 callsubr
        </CharString>
        <CharString name="cacute">
          969 507 -86 callsubr
          94 -1106 16 callsubr
        </CharString>
        <CharString name="caret">
          470 222 hmoveto
          -255 -346 35 -36 232 314 233 -315 37 36 -256 347 rlineto
          endchar
        </CharString>
        <CharString name="caron">
          1024 736 -59 callsubr
          endchar
        </CharString>
        <CharString name="caroncmb">
          0 224 -59 callsubr
          endchar
        </CharString>
        <CharString name="caroncmb.short">
          0 216 1347 87 callsubr
          endchar
        </CharString>
        <CharString name="carondotaccentcmb">
          0 1332 vmoveto
          133 callsubr
          -28 rmoveto
          -243 -107 -243 107 -101 callgsubr
          endchar
        </CharString>
        <CharString name="carondotaccentcmb.short">
          0 1773 vmoveto
          137 callsubr
          -67 callgsubr
          endchar
        </CharString>
        <CharString name="caronslovak">
          1024 438 1050 98 callsubr
          endchar
        </CharString>
        <CharString name="caronslovakcmb">
          0 52 1050 98 callsubr
          endchar
        </CharString>
        <CharString name="ccaron">
          969 787 -59 callsubr
          -272 -1481 16 callsubr
        </CharString>
        <CharString name="ccedilla">
          969 542 8 callsubr
          -47 callsubr
          73 100 145 9 115 62 57 85 rlinecurve
          115 callsubr
          -295 195 -202 266 -5 hvcurveto
          -123 -161 -62 callsubr
          20 callsubr
          endchar
        </CharString>
        <CharString name="ccedillaacute">
          969 507 -86 callsubr
          78 -1538 rmoveto
          -23 callsubr
          -47 callsubr
          73 100 145 9 115 62 57 85 rlinecurve
          115 callsubr
          -295 195 -202 266 -5 hvcurveto
          -123 -161 -62 callsubr
          20 callsubr
          endchar
        </CharString>
        <CharString name="ccircumflex">
          969 339 -72 callsubr
          262 -1106 16 callsubr
        </CharString>
        <CharString name="cdotaccent">
          969 563 -67 callsubr
          -5 -1178 16 callsubr
        </CharString>
        <CharString name="cedi">
          1326 751 -189 rmoveto
          36 202 hlineto
          6 7 0 6 hhcurveto
          180 178 47 58 -107 callgsubr
          -245 -61 -145 -92 -202 hhcurveto
          -8 -9 0 1 -8 hvcurveto
          1318 vlineto
          1 8 9 0 8 hhcurveto
          216 132 -111 -224 55 hvcurveto
          31 hlineto
          -14 281 rlineto
          58 -79 -139 45 -212 -5 -5 0 -5 hhcurveto
          201 -36 -202 vlineto
          -380 -22 -269 -269 -404 vvcurveto
          -429 274 -268 375 -23 vhcurveto
          -430 738 rmoveto
          363 160 233 270 30 vhcurveto
          -1313 vlineto
          -279 37 -151 296 354 vvcurveto
          endchar
        </CharString>
        <CharString name="cedi.tnum">
          1116 643 -189 rmoveto
          36 203 1 hlineto
          156 139 41 43 66 hvcurveto
          14 280 rlineto
          -32 hlineto
          -54 -229 -117 -88 -161 1 rrcurveto
          -4 -4 0 -4 hhcurveto
          1320 vlineto
          6 5 0 6 hhcurveto
          156 110 -105 -208 48 hvcurveto
          32 hlineto
          -13 280 rlineto
          42 -71 -112 39 -161 -2 -2 0 -2 hhcurveto
          202 -36 -203 vlineto
          -330 -21 -237 -271 -403 vvcurveto
          -448 243 -253 324 -18 vhcurveto
          -349 737 rmoveto
          366 128 229 221 31 vhcurveto
          -1313 vlineto
          -230 35 -119 281 371 vvcurveto
          endchar
        </CharString>
        <CharString name="cedilla">
          1024 483 8 callsubr
          -88 callgsubr
          18 -33 vlineto
          -144 -197 -62 callsubr
          14 22 -27 hvcurveto
          -1 -34 rlineto
          -47 30 72 -34 86 hhcurveto
          endchar
        </CharString>
        <CharString name="cedillacmb">
          0 -29 8 callsubr
          -47 callsubr
          79 109 rlineto
          18 -33 vlineto
          -144 -189 -62 callsubr
          20 callsubr
          endchar
        </CharString>
        <CharString name="cent">
          974 585 -80 callgsubr
          14 15 1 15 hhcurveto
          75 64 -22 -37 44 153 callsubr
        </CharString>
        <CharString name="cent.1">
          969 585 147 callsubr
        </CharString>
        <CharString name="cent.1.tnum">
          1116 628 147 callsubr
        </CharString>
        <CharString name="cent.tnum">
          1116 625 -80 callgsubr
          15 15 1 15 hhcurveto
          75 64 -22 -37 43 153 callsubr
        </CharString>
        <CharString name="checyrillic">
          1153 158 693 rmoveto
          -212 131 -98 195 111 107 33 40 65 vhcurveto
          -332 vlineto
          -63 -21 -15 -129 -12 vhcurveto
          -34 477 34 vlineto
          -111 11 -19 16 63 vvcurveto
          719 vlineto
          64 19 16 111 10 vhcurveto
          35 -454 -35 vlineto
          110 -10 17 -16 -63 vvcurveto
          -352 vlineto
          -22 -45 -84 -22 -71 hhcurveto
          -138 -74 70 170 hvcurveto
          156 vlineto
          63 18 16 107 10 vhcurveto
          35 -451 -35 vlineto
          111 -10 18 -16 -64 vvcurveto
          endchar
        </CharString>
        <CharString name="chigreek">
          1038 247 -459 rmoveto
          195 659 166 -393 rlineto
          -208 85 64 -71 119 hhcurveto
          73 59 35 40 33 hvcurveto
          34 vlineto
          -10 -13 -24 -10 -28 hhcurveto
          -59 -43 35 154 -67 hvcurveto
          -201 477 121 237 132 230 138 217 rlinecurve
          -216 hlineto
          -196 -636 -155 368 rlineto
          209 -86 -61 70 -120 hhcurveto
          -75 -57 -36 -39 -34 hvcurveto
          -35 vlineto
          11 13 24 10 28 hhcurveto
          60 44 -34 -155 65 hvcurveto
          190 -451 -126 -254 -128 -238 -135 -216 rlinecurve
          endchar
        </CharString>
        <CharString name="circumflex">
          1024 288 -72 callsubr
          endchar
        </CharString>
        <CharString name="circumflexacutecmb">
          -106 callgsubr
          -275 vmoveto
          -37 callsubr
          endchar
        </CharString>
        <CharString name="circumflexacutecmb.short">
          0 249 1812 21 callsubr
          1 -233 rmoveto
          -52 callgsubr
          endchar
        </CharString>
        <CharString name="circumflexbelowcmb">
          0 -208 -446 -63 callsubr
        </CharString>
        <CharString name="circumflexcmb">
          0 -224 -72 callsubr
          endchar
        </CharString>
        <CharString name="circumflexcmb.short">
          0 -198 1061 129 callsubr
          endchar
        </CharString>
        <CharString name="circumflexgravecmb">
          0 -243 -11 callsubr
          -495 vmoveto
          -37 callsubr
          endchar
        </CharString>
        <CharString name="circumflexgravecmb.short">
          0 -249 86 callsubr
          endchar
        </CharString>
        <CharString name="circumflexhookabovecmb">
          0 187 78 callsubr
          endchar
        </CharString>
        <CharString name="circumflexhookabovecmb.short">
          0 212 71 callsubr
          endchar
        </CharString>
        <CharString name="circumflextildecmb">
          0 107 15 callsubr
          101 callsubr
          endchar
        </CharString>
        <CharString name="circumflextildecmb.short">
          0 110 1764 -64 callsubr
          82 callsubr
          endchar
        </CharString>
        <CharString name="colon">
          470 235 699 19 callsubr
          -70 callgsubr
        </CharString>
        <CharString name="colon.uc">
          470 235 956 19 callsubr
          -70 callgsubr
        </CharString>
        <CharString name="coloncurrency">
          1326 375 -189 rmoveto
          36 hlineto
          60 275 70 -34 77 -22 83 -11 rlinecurve
          -45 -208 37 0 45 205 rlineto
          -2 22 23 -1 23 hhcurveto
          180 178 49 58 -107 callgsubr
          -247 -61 -145 -92 -202 hhcurveto
          -22 -21 1 3 -20 hvcurveto
          275 1266 94 -53 63 -95 34 -139 rlinecurve
          31 hlineto
          -14 281 -44 33 -63 29 -85 19 rlinecurve
          49 224 -37 0 -47 -217 rlineto
          11 -59 -67 6 -77 hhcurveto
          -13 -12 0 -1 -13 hvcurveto
          44 201 -37 0 -44 -203 rlineto
          -368 -32 -257 -265 -396 vvcurveto
          -297 131 -220 206 -115 vhcurveto
          373 1279 rmoveto
          68 59 -11 -22 52 hvcurveto
          -278 -1276 rlineto
          -86 19 -72 46 -59 64 257 1177 rcurveline
          2 19 20 1 20 hhcurveto
          -491 -629 rmoveto
          347 146 227 248 46 vhcurveto
          -247 -1136 rlineto
          -97 127 -50 185 204 vvcurveto
          endchar
        </CharString>
        <CharString name="coloncurrency.tnum">
          1116 281 -189 rmoveto
          37 hlineto
          59 283 66 -39 74 -25 79 -11 rlinecurve
          -44 -208 36 0 43 205 rlineto
          -1 17 16 -1 17 hhcurveto
          156 138 41 43 66 hvcurveto
          14 280 rlineto
          -32 hlineto
          -54 -229 -116 -88 -161 1 rrcurveto
          -17 -17 1 3 -16 hvcurveto
          259 1231 49 -52 37 -76 23 -100 rlinecurve
          32 hlineto
          -13 280 -29 17 -36 17 -43 13 rlinecurve
          50 236 -37 0 -47 -226 rlineto
          15 -57 -66 9 -79 hhcurveto
          -9 -9 0 -1 -9 hvcurveto
          42 203 -37 0 -43 -205 rlineto
          -318 -32 -226 -267 -394 vvcurveto
          -294 105 -210 164 -115 vhcurveto
          352 1267 rmoveto
          66 58 -19 -38 49 hvcurveto
          -263 -1252 rlineto
          -83 23 -66 58 -51 83 240 1142 rcurveline
          2 16 17 1 17 hhcurveto
          -403 -630 rmoveto
          345 115 225 199 49 vhcurveto
          -227 -1084 rlineto
          -58 120 -29 162 183 vvcurveto
          endchar
        </CharString>
        <CharString name="combiningcircle">
          70 callsubr
          endchar
        </CharString>
        <CharString name="comma">
          470 115 -239 124 callsubr
          endchar
        </CharString>
        <CharString name="commaaccentcmb">
          0 -10 -450 -73 callsubr
        </CharString>
        <CharString name="copyright">
          70 callsubr
          -332 711 rmoveto
          -226 162 -139 213 99 88 24 26 35 vhcurveto
          6 178 rlineto
          -20 hlineto
          -132 -29 -73 -64 -99 hhcurveto
          -146 -81 160 180 194 84 126 140 108 67 -71 -122 27 hvcurveto
          20 hlineto
          -6 178 rlineto
          27 -39 -74 20 -110 hhcurveto
          -206 -166 -128 -231 hvcurveto
          endchar
        </CharString>
        <CharString name="cruzeiro">
          1327 710 779 rmoveto
          -740 vlineto
          -254 62 -138 301 351 vvcurveto
          407 181 257 307 216 137 -111 -218 54 vhcurveto
          31 hlineto
          -14 281 rlineto
          53 -75 -145 43 -207 hhcurveto
          -408 -295 -292 -438 -467 301 -289 403 180 178 48 54 -107 callgsubr
          -54 -219 -125 -97 -173 -16 rrcurveto
          561 vlineto
          56 64 80 29 105 hhcurveto
          35 34 -5 -4 19 hvcurveto
          8 11 8 22 22 vvcurveto
          42 -26 43 -70 -77 -78 -57 -136 -104 vhcurveto
          190 vlineto
          endchar
        </CharString>
        <CharString name="cruzeiro.tnum">
          1116 691 -21 rmoveto
          151 -1 131 36 62 40 13 281 rcurveline
          -31 hlineto
          -50 -204 -95 -91 -136 -13 rrcurveto
          562 vlineto
          57 60 71 30 89 hhcurveto
          32 30 -5 -5 20 hvcurveto
          8 11 8 23 22 vvcurveto
          42 -25 41 -64 -69 -70 -60 -133 -92 vhcurveto
          199 vlineto
          -150 -25 rlineto
          -739 vlineto
          -187 76 -104 270 359 vvcurveto
          424 155 241 254 162 102 -104 -203 46 vhcurveto
          32 hlineto
          -14 280 rlineto
          40 -68 -106 34 -157 hhcurveto
          -365 -259 -295 -435 -479 265 -276 351 hvcurveto
          endchar
        </CharString>
        <CharString name="currency">
          1116 557 195 rmoveto
          91 82 31 52 65 hvcurveto
          143 -149 46 46 -142 148 rlineto
          58 66 35 87 96 vvcurveto
          96 -35 88 -58 66 vhcurveto
          142 150 -46 45 -143 -150 rlineto
          53 -65 -82 31 -91 hhcurveto
          -90 -82 -31 -52 -65 hvcurveto
          -142 149 -46 -45 142 -149 rlineto
          -59 -66 -35 -88 -97 vvcurveto
          -96 35 -87 58 -66 vhcurveto
          -141 -148 46 -46 142 149 rlineto
          -52 65 82 -31 90 hhcurveto
          60 vmoveto
          -172 -140 138 179 181 140 137 172 173 139 -137 -181 -179 -139 -138 -173 hvcurveto
          endchar
        </CharString>
        <CharString name="d">
          49 callsubr
          endchar
        </CharString>
        <CharString name="dagger">
          1024 512 1461 rmoveto
          -50 -36 -45 -69 14 hvcurveto
          60 -308 rlineto
          3 2 6 2 4 hhcurveto
          5 5 -2 -3 2 hvcurveto
          60 308 rlineto
          67 14 -37 47 -49 hhcurveto
          -356 -507 rmoveto
          336 53 rlineto
          -2 3 -2 4 5 vvcurveto
          5 2 5 2 3 vhcurveto
          -336 48 rlineto
          712 -126 rmoveto
          126 vlineto
          -336 -48 rlineto
          3 -3 1 -5 -5 vvcurveto
          -5 -1 -4 -3 -3 vhcurveto
          -96 -299 rmoveto
          1 -110 13 -147 55 -475 rrcurveto
          14 hlineto
          55 475 13 147 1 110 1 94 -17 95 -48 103 rrcurveto
          -4 -2 -6 -2 -4 hhcurveto
          -5 -5 2 4 -2 hvcurveto
          -48 -103 -17 -95 1 -94 rrcurveto
          endchar
        </CharString>
        <CharString name="daggerdbl">
          1024 512 1461 rmoveto
          -50 -36 -44 -68 14 hvcurveto
          59 -303 rlineto
          3 3 5 2 5 hhcurveto
          5 5 -2 -3 3 hvcurveto
          59 303 rlineto
          67 14 -37 45 -49 hhcurveto
          -356 -499 rmoveto
          336 52 rlineto
          -3 2 -2 4 6 vvcurveto
          5 2 5 3 3 vhcurveto
          -336 50 rlineto
          712 -127 rmoveto
          127 vlineto
          -336 -50 rlineto
          3 -3 2 -5 -5 vvcurveto
          -6 -2 -4 -3 -2 vhcurveto
          -90 -291 rmoveto
          -81 16 -95 41 -109 vhcurveto
          4 3 5 2 5 hhcurveto
          5 5 -2 -4 3 hvcurveto
          41 109 16 95 81 vvcurveto
          79 -16 95 -41 109 vhcurveto
          -4 -3 -5 -2 -5 hhcurveto
          -5 -5 2 4 -3 hvcurveto
          -41 -109 -16 -95 -79 vvcurveto
          -286 -241 rmoveto
          -127 vlineto
          336 50 rlineto
          -3 4 -2 4 5 vvcurveto
          6 2 4 3 3 vhcurveto
          376 51 rmoveto
          -336 -51 rlineto
          3 -3 2 -4 -6 vvcurveto
          -5 -2 -4 -3 -4 vhcurveto
          336 -50 rlineto
          -356 -372 rmoveto
          50 36 45 67 -14 hvcurveto
          -59 303 rlineto
          -3 -3 -5 -2 -5 hhcurveto
          -5 -5 2 3 -3 hvcurveto
          -59 -303 rlineto
          -68 -14 36 -44 50 hhcurveto
          endchar
        </CharString>
        <CharString name="dbar">
          1171 87 476 rmoveto
          -316 191 -178 212 141 127 72 111 53 vhcurveto
          -174 vlineto
          -87 callsubr
          -56 18 -7 11 54 vvcurveto
          1061 121 45 -121 210 vlineto
          -197 -16 rlineto
          -194 -245 -45 245 -356 vlineto
          72 -46 -90 50 -120 hhcurveto
          -258 -208 -203 -306 hvcurveto
          205 23 rmoveto
          257 123 171 184 1 vhcurveto
          94 -1 84 -49 32 -65 rrcurveto
          -616 vlineto
          -79 -35 callgsubr
        </CharString>
        <CharString name="dblgrave">
          1024 272 -16 callsubr
          endchar
        </CharString>
        <CharString name="dblgravecmb">
          0 -240 -16 callsubr
          endchar
        </CharString>
        <CharString name="dblgravecmb.short">
          0 -199 1329 -74 callgsubr
          endchar
        </CharString>
        <CharString name="dcaron">
          1170 63 callsubr
          38 callsubr
          1086 587 98 callsubr
          -849 -564 rmoveto
          -81 callgsubr
          endchar
        </CharString>
        <CharString name="dcircumflexbelow">
          49 callsubr
          90 -945 -63 callsubr
        </CharString>
        <CharString name="dcommaaccent">
          49 callsubr
          293 -949 -73 callsubr
        </CharString>
        <CharString name="ddotaccent">
          1170 893 1581 51 callsubr
          -806 -1105 rmoveto
          -315 191 38 callsubr
          205 23 rmoveto
          -81 callgsubr
          endchar
        </CharString>
        <CharString name="ddotbelow">
          49 callsubr
          298 -885 -93 callsubr
        </CharString>
        <CharString name="decyrillic">
          1074 1029 42 rmoveto
          -144 782 hlineto
          77 15 17 118 15 vhcurveto
          35 -885 -35 vlineto
          114 -14 31 -21 -1 -106 rrcurveto
          -2 -76 -5 -384 -70 -201 -65 -89 rlinecurve
          -110 hlineto
          -8 -343 rlineto
          35 hlineto
          260 77 21 41 176 hhcurveto
          405 hlineto
          174 21 -41 -260 77 hvcurveto
          34 hlineto
          -842 343 rmoveto
          57 85 70 186 6 403 4 209 rcurveline
          356 -883 hlineto
          endchar
        </CharString>
        <CharString name="degree">
          700 350 874 rmoveto
          145 119 113 147 146 -119 114 -145 -145 -119 -114 -146 -147 119 -113 145 hvcurveto
          51 vmoveto
          -112 -92 89 120 120 92 89 112 111 93 -89 -120 -120 -93 -89 -111 hvcurveto
          endchar
        </CharString>
        <CharString name="deltagreek">
          1119 880 1219 rmoveto
          89 166 rlineto
          64 -71 -148 52 -166 hhcurveto
          -216 -158 -113 -165 -129 78 -84 143 -77 hvcurveto
          67 -36 rlineto
          -247 -45 -165 -175 -249 vvcurveto
          -266 197 -180 271 264 214 188 307 242 -135 185 -250 135 vhcurveto
          -137 73 rlineto
          -125 68 -48 52 76 vvcurveto
          78 52 43 103 117 139 -72 -138 132 vhcurveto
          -584 -785 rmoveto
          2 200 78 175 165 65 27 -15 rcurveline
          153 -82 105 -139 -221 vvcurveto
          -241 -107 -146 -165 -159 -100 166 238 1 vhcurveto
          endchar
        </CharString>
        <CharString name="dieresis">
          1024 311 -61 callsubr
          endchar
        </CharString>
        <CharString name="dieresisacutecmb">
          -106 callgsubr
          96 -241 rmoveto
          -53 callsubr
          -40 callsubr
          endchar
        </CharString>
        <CharString name="dieresisacutecmb.short">
          0 249 26 callsubr
          111 -192 rmoveto
          -52 callsubr
          -39 callsubr
          endchar
        </CharString>
        <CharString name="dieresisbelowcmb">
          0 -187 -380 rmoveto
          91 callsubr
          374 hmoveto
          91 callsubr
          endchar
        </CharString>
        <CharString name="dieresiscaroncmb">
          0 243 1558 rmoveto
          -243 -106 -243 106 -101 callgsubr
          -390 -417 rmoveto
          -53 callsubr
          -40 callsubr
          endchar
        </CharString>
        <CharString name="dieresiscaroncmb.short">
          0 249 1948 rmoveto
          -249 -87 -250 87 0 -31 234 -161 32 0 233 161 rlineto
          -388 -351 rmoveto
          -52 callsubr
          -39 callsubr
          endchar
        </CharString>
        <CharString name="dieresiscmb">
          0 -201 -61 callsubr
          endchar
        </CharString>
        <CharString name="dieresiscmb.short">
          0 -152 1102 95 callsubr
          endchar
        </CharString>
        <CharString name="dieresisgravecmb">
          0 -243 -11 callsubr
          96 -461 rmoveto
          -53 callsubr
          -40 callsubr
          endchar
        </CharString>
        <CharString name="dieresisgravecmb.short">
          0 -249 1833 rmoveto
          499 -75 0 32 -499 156 rlineto
          110 -380 rmoveto
          -52 callsubr
          -39 callsubr
          endchar
        </CharString>
        <CharString name="dieresismacroncmb">
          0 -244 58 callsubr
          97 -386 rmoveto
          -53 callsubr
          -40 callsubr
          endchar
        </CharString>
        <CharString name="dieresismacroncmb.short">
          0 -250 57 callsubr
          111 -328 rmoveto
          -52 callsubr
          -39 callsubr
          endchar
        </CharString>
        <CharString name="dieresistonosgreek">
          1024 499 79 callsubr
          endchar
        </CharString>
        <CharString name="dieresistonosgreekcmb">
          0 -13 79 callsubr
          endchar
        </CharString>
        <CharString name="divide">
          1116 558 812 rmoveto
          60 49 50 61 61 -49 49 -60 -60 -50 -49 -61 -61 50 -50 60 hvcurveto
          -446 -281 rmoveto
          892 65 -892 hlineto
          446 -500 rmoveto
          60 49 49 61 61 -49 49 -60 -60 -50 -49 -61 -61 50 -49 60 hvcurveto
          endchar
        </CharString>
        <CharString name="djecyrillic">
          1165 136 callsubr
          -71 callsubr
          638 -103 callgsubr
          -508 vlineto
          -282 -42 -160 -170 -138 vhcurveto
          21 -29 58 41 rlineto
          248 174 82 117 296 vvcurveto
          530 vlineto
          204 -136 98 -193 -5 callsubr
          132 callsubr
        </CharString>
        <CharString name="dlinebelow">
          49 callsubr
          55 -841 -75 callsubr
        </CharString>
        <CharString name="dollar">
          1070 507 -189 rmoveto
          36 203 hlineto
          249 -48 callgsubr
          -101 44 rlineto
          521 vlineto
          176 115 -104 -199 47 hvcurveto
          -26 callgsubr
          -5 201 -36 -202 hlineto
          -225 -13 -174 -124 -99 callgsubr
          75 -31 rlineto
          -589 vlineto
          -174 4 -145 94 -60 241 rrcurveto
          -32 hlineto
          14 -282 96 -66 141 -38 160 -73 callgsubr
          266 -516 rmoveto
          192 -81 81 -80 -140 vvcurveto
          -156 -108 -106 -165 -10 vhcurveto
          endchar
        </CharString>
        <CharString name="dollar.1">
          1070 506 -189 rmoveto
          36 203 hlineto
          250 -48 callgsubr
          -108 -39 callgsubr
          176 115 -104 -199 47 vhcurveto
          -26 callgsubr
          -6 201 -36 -202 hlineto
          -224 -24 callgsubr
          192 -81 81 -80 -140 vvcurveto
          -164 -120 -109 -179 -178 -150 93 246 -61 vhcurveto
          -32 hlineto
          14 -282 95 -66 141 -38 160 -1 rlinecurve
          endchar
        </CharString>
        <CharString name="dollar.1.tnum">
          1116 528 -189 rmoveto
          36 203 hlineto
          250 10 193 158 236 vvcurveto
          184 -115 121 -225 95 vhcurveto
          -109 -39 callgsubr
          177 115 -104 -199 46 vhcurveto
          -27 callgsubr
          -6 201 -36 -202 hlineto
          -223 -24 callgsubr
          191 -81 81 -80 -140 vvcurveto
          -164 -120 -109 -178 -178 -150 93 246 -62 vhcurveto
          -32 hlineto
          15 -282 94 -66 141 -38 160 -1 rlinecurve
          endchar
        </CharString>
        <CharString name="dollar.small">
          888 474 hmoveto
          224 vlineto
          179 14 154 109 162 vvcurveto
          155 -98 94 -173 54 vhcurveto
          -62 20 rlineto
          343 vlineto
          125 -4 97 -77 33 -157 rrcurveto
          31 hlineto
          -4 224 -48 31 -105 29 -129 2 rlinecurve
          221 -36 -222 vlineto
          -196 -8 -140 -103 -164 vvcurveto
          -145 101 -85 176 -56 vhcurveto
          59 -19 rlineto
          -372 vlineto
          -2 -2 0 -2 hhcurveto
          -142 -129 90 186 -42 hvcurveto
          -32 hlineto
          11 -242 rlineto
          -46 72 119 -36 144 hhcurveto
          5 -222 hlineto
          -175 1016 rmoveto
          90 68 59 107 9 vhcurveto
          -330 vlineto
          -112 37 -63 46 89 vvcurveto
          382 -573 rmoveto
          -88 -63 -68 -108 -14 vhcurveto
          357 vlineto
          119 -40 52 -55 -92 vvcurveto
          endchar
        </CharString>
        <CharString name="dollar.small.1">
          887 471 hmoveto
          224 vlineto
          180 14 154 109 163 vvcurveto
          154 -97 93 -172 55 vhcurveto
          -76 24 rlineto
          -125 40 -70 46 94 vvcurveto
          96 78 63 122 129 100 -77 -160 33 vhcurveto
          32 hlineto
          -5 223 -47 31 -106 30 -130 1 rlinecurve
          221 -36 -222 vlineto
          -195 -9 -138 -104 -162 vvcurveto
          -145 101 -85 175 -56 vhcurveto
          76 -25 rlineto
          131 -41 58 -55 -97 vvcurveto
          -99 -81 -74 -132 -142 -127 91 185 -42 vhcurveto
          -32 hlineto
          11 -242 rlineto
          -46 71 119 -36 143 hhcurveto
          4 -222 hlineto
          endchar
        </CharString>
        <CharString name="dollar.tnum">
          1116 529 -189 rmoveto
          36 203 hlineto
          250 11 192 158 235 vvcurveto
          184 -115 121 -225 95 vhcurveto
          -102 44 rlineto
          521 vlineto
          177 115 -104 -199 46 hvcurveto
          -27 callgsubr
          -5 201 -36 -202 hlineto
          -224 -13 -174 -124 -99 callgsubr
          74 -31 rlineto
          -589 vlineto
          -173 4 -145 94 -61 241 rrcurveto
          -32 hlineto
          15 -282 94 -66 141 -38 161 -73 callgsubr
          267 -516 rmoveto
          191 -81 81 -80 -140 vvcurveto
          -156 -109 -107 -164 -9 vhcurveto
          573 vlineto
          endchar
        </CharString>
        <CharString name="dotaccent">
          1024 512 -67 callsubr
          endchar
        </CharString>
        <CharString name="dotaccentcmb">
          0 1160 vmoveto
          -45 callgsubr
          endchar
        </CharString>
        <CharString name="dotaccentcmb.short">
          0 1103 vmoveto
          53 42 42 51 51 -42 41 -53 -53 -42 -41 -51 -51 42 -42 53 hvcurveto
          endchar
        </CharString>
        <CharString name="dotbelowcmb">
          0 -386 vmoveto
          -49 callgsubr
        </CharString>
        <CharString name="dotbelowcmb.short">
          0 -196 vmoveto
          -53 -42 -41 -51 -51 42 -42 53 53 42 42 51 51 -42 41 -53 hvcurveto
          endchar
        </CharString>
        <CharString name="dotlessi">
          529 367 978 -106 callsubr
          -105 callsubr
          -104 callsubr
          -81 callsubr
        </CharString>
        <CharString name="dotlessj">
          509 358 978 -106 callsubr
          -105 callsubr
          -38 callsubr
        </CharString>
        <CharString name="dotmacroncmb">
          0 -244 123 callsubr
          endchar
        </CharString>
        <CharString name="dotmacroncmb.short">
          0 -250 130 callsubr
          endchar
        </CharString>
        <CharString name="dotoperator">
          1116 558 392 rmoveto
          94 76 77 95 96 -76 75 -94 -93 -78 -75 -96 -95 78 -77 93 hvcurveto
          endchar
        </CharString>
        <CharString name="dzecyrillic">
          884 96 707 66 callsubr
          endchar
        </CharString>
        <CharString name="dzhecyrillic">
          1188 1008 831 rmoveto
          69 13 17 108 16 vhcurveto
          35 -432 -35 vlineto
          101 -13 13 -17 -65 vvcurveto
          -795 -434 795 vlineto
          -29 callgsubr
          370 vlineto
          96 13 -44 -257 37 hvcurveto
          37 hlineto
          257 37 14 44 95 hhcurveto
          371 34 hlineto
          -108 16 -13 17 69 vvcurveto
          endchar
        </CharString>
        <CharString name="e">
          1017 31 callsubr
          -80 callsubr
        </CharString>
</ttFont>
